<?xml version="1.0" encoding="UTF-8" standalone="no"?>
<!-- Created with Inkscape (http://www.inkscape.org/) -->
<svg xmlns:dc="http://purl.org/dc/elements/1.1/" xmlns:cc="http://creativecommons.org/ns#" xmlns:rdf="http://www.w3.org/1999/02/22-rdf-syntax-ns#" xmlns:svg="http://www.w3.org/2000/svg" xmlns="http://www.w3.org/2000/svg" xmlns:xlink="http://www.w3.org/1999/xlink" xmlns:sodipodi="http://sodipodi.sourceforge.net/DTD/sodipodi-0.dtd" xmlns:inkscape="http://www.inkscape.org/namespaces/inkscape" version="1.1" inkscape:version="0.48.4 r9939" width="1370" height="1840" sodipodi:docname="original.svg">
  <g inkscape:groupmode="layer" inkscape:label="Original" sodipodi:insensitive="true"/>
  <g inkscape:groupmode="layer" inkscape:label="Outline" style="fill:none;stroke:#ff0000;stroke-width:10;stroke-linecap:round;stroke-linejoin:round;stroke-miterlimit:4;stroke-opacity:0.0;stroke-dasharray:none">
    <g>
      <title>4</title>
      <path d="m 60.229632,145.19758 c 0,0 -24.307923,4.32141 -25.388276,4.32141 -1.080352,0 15.665106,-21.60704 15.665106,-21.60704 l -5.671848,37.81232"/>
    </g>
    <g>
      <title>2</title>
      <path d="m 70.763065,140.06591 6.752201,-15.93519 2.160704,4.05132 9.453081,1.35044 -12.424049,20.52669 11.073609,1.89061 12.153962,-2.1607 2.430797,-8.91291"/>
    </g>
    <g>
      <title>D</title>
      <path d="m 145.57745,104.68438 12.96423,14.58475 -0.81027,12.69414 -5.40176,9.18299 -7.56246,4.86159 -11.61379,-2.97097"/>
      <g>
        <title>D</title>
        <path d="m 137.7449,143.57705 18.90616,-26.46862"/>
      </g>
    </g>
    <g>
      <title>e</title>
      <path d="m 160.70238,137.63512 12.15396,-4.5915 4.5915,-9.18299 -8.10264,2.97097 -5.40176,6.21202 -0.27009,7.02229 1.35044,2.43079 6.7522,2.16071 6.7522,-9.99326"/>
    </g>
    <g>
      <title>n</title>
      <path d="m 178.52819,134.66415 3.78123,-5.67185 3.51115,-1.62053 0.54017,1.89062 -6.48211,14.31466 6.48211,-13.77449 2.4308,-1.35044 1.89061,-1.89061 5.13168,-0.54018 -0.81027,5.94194 -2.97097,8.10264 5.40176,2.43079"/>
    </g>
    <g>
      <title>1</title>
      <path d="m 214.17981,139.52573 5.13167,-10.26334 1.89062,-9.72317 7.83255,-2.16071 -8.37273,21.33696 -0.27008,1.35044 3.51114,0.27009"/>
      <path d="m 233.35606,100.90314 -0.81026,1.89062"/>
    </g>
    <g>
      <title>8</title>
      <path d="m 254.42293,112.78702 -7.83255,8.9129 6.7522,5.40176 2.97096,0.81027 2.4308,5.67185 -2.16071,3.24105 -6.7522,2.16071 -3.78123,-0.54018 0.54018,-5.94194 15.12493,-12.15396 1.62052,-3.51114 z"/>
    </g>
    <g>
      <title>A</title>
      <path d="m 276.30006,132.77353 2.43079,4.05132 18.63608,-38.352498 6.48211,-5.401761 7.02229,-0.810264 0.27009,8.102643 -6.21203,6.48211 -4.32141,2.16071 -4.05132,5.67184 -15.6651,0.81027 -4.86159,-2.16071 6.7522,-1.89061 23.49766,-1.62053"/>
      <path d="m 314.38247,83.347422 -13.5044,20.526688 -11.3437,29.97977 2.4308,2.16071 6.7522,-4.32141"/>
    </g>
    <g>
      <title>p</title>
      <path d="m 310.60124,111.16649 -17.28563,45.91497"/>
      <path d="m 314.65256,115.21781 5.40176,-2.1607 0.27009,4.59149 -1.89062,5.94194 -6.7522,5.94194"/>
    </g>
    <g>
      <title>r</title>
      <path d="m 325.99626,117.91869 4.05132,-1.62053 -4.86159,13.77449 4.86159,-6.21202 1.89061,1.89061 -2.43079,5.13168 10.26335,-18.0959 1.35044,5.94193 5.13167,1.08036"/>
    </g>
    <g>
      <title>i</title>
      <path d="m 355.97603,96.851824 2.97097,2.70088"/>
      <path d="m 355.70594,111.43658 2.70088,-1.62053 -2.70088,15.39502 8.78728,-6.80705"/>
    </g>
    <g>
      <title>l</title>
      <path d="m 364.49322,118.40402 10.38897,-8.04779 7.02229,-11.073614 7.56247,-10.533433 0.54017,-7.292377 -3.24105,-3.511145 -6.21203,13.504402 -3.78123,19.176247 -3.51115,6.7522 -5.13167,5.13168 7.29238,-3.51115 7.29238,0.54018 12.96422,-2.97097"/>
    </g>
    <g>
      <title>J</title>
      <path d="m 421.33312,113.91356 -5.64285,-6.58333 1.56746,-8.15079 4.07539,-8.464282 4.38889,-5.015871 8.46428,-0.313491 -9.40476,14.420627 -6.26983,21.317447 -4.0754,14.10714 -5.01587,9.09126 -10.65872,6.58333 -8.15079,0 -1.25397,-5.95634 0,-4.70238"/>
      <path d="m 417.88471,118.92943 -12.53967,0.62698 -3.76191,2.19445 -0.31349,3.44841 16.61507,0.31349"/>
    </g>
    <g>
      <title>o</title>
      <path d="m 438.57518,113.60007 -7.8373,5.32936 -0.94048,5.64285 6.89683,1.88096 7.21031,-5.01588 0,-6.26983 -3.7619,-1.56746 5.32936,3.13492 c 0,0 4.96354,-0.5667 7.21031,-1.56746"/>
    </g>
    <g>
      <title>h</title>
      <path d="m 452.68231,115.16753 c 2.94061,-1.30982 7.8373,-5.64286 7.8373,-5.64286 l 9.09127,-3.13492 7.83729,-9.718246 4.38889,-11.912692 -3.7619,-5.956346 -5.01587,3.761902 -14.10714,28.527762 -4.38888,25.39285 -6.26984,11.5992 -5.01587,6.26984 -5.64286,2.82142 -3.7619,-1.56746 3.13492,-10.65872 9.40476,-13.16666 12.53967,-7.52381 4.05556,-2.70371"/>
    </g>
    <g>
      <title>a</title>
      <path d="m 463.00771,121.55508 5.3492,-3.56613 8.15079,-5.32936 -7.52381,4.70238 -0.94047,5.01587 5.64285,1.25397 2.50794,-3.7619 6.26984,-10.97222 -0.94048,10.34523 2.50793,2.82143"/>
    </g>
    <g>
      <title>n</title>
      <path d="m 492.49579,117.67546 8.77777,-5.01587 3.7619,1.88095 -4.38888,8.46428 6.26983,-7.5238 5.95635,-3.7619 5.01587,0.62698 -3.44841,5.95635 -1.56746,3.13491 5.01587,-9.09126 c 0,0 3.13231,-0.26121 4.70238,-0.31349"/>
    </g>
    <g>
      <title>n</title>
      <path d="m 522.59101,112.03261 c 0.93996,-0.0313 2.82143,0 2.82143,0 l 1.56746,2.82142 -3.76191,6.26984 5.95635,-8.46428 2.19444,-1.88095 2.82143,0 0.94048,4.70238 0,3.13492 c 0,0 4.9899,-3.22377 7.83729,-3.76191"/>
    </g>
    <g>
      <title>e</title>
      <path d="m 542.96798,114.85403 c 2.77994,-0.52539 8.46428,0.62699 8.46428,0.62699 l 2.50794,-5.01587 -4.07539,11.5992 6.89682,-7.8373 c 0,0 4.37166,-0.79485 6.5575,-1.19227"/>
    </g>
    <g>
      <title>s</title>
      <path d="m 563.31913,113.03478 c 2.41204,-0.43855 7.23614,-1.31566 7.23614,-1.31566 l 5.95635,-0.62699 0.94047,0.94048 -0.94047,8.15079 -0.31349,0 -0.62699,0 3.7619,-15.98809 5.01587,-9.404757 5.01588,-5.015871 5.32936,-1.253967 -1.56746,8.777773 -1.56746,4.388882 2.19444,5.64286 -3.7619,5.64285 -2.19444,1.25397 -4.38889,-1.25397"/>
    </g>
    <g>
      <title>E</title>
      <path d="m 915.70986,86.012779 2.82143,-7.523805 -3.13492,-8.15079 -10.34523,2.194443 -9.71825,3.134919 -8.77778,5.015871 -6.26983,14.420628 0.62698,8.150785 5.01587,5.01587"/>
      <path d="M 886.86861,71.27866 890.944,86.012779"/>
    </g>
    <g>
      <title>n</title>
      <path d="m 902.22971,96.671504 4.38889,2.507936 -6.26984,5.01587 9.09126,-8.15079 7.21032,0.940476 -0.94048,7.210314 2.82143,2.50794"/>
    </g>
    <g>
      <title>d</title>
      <path d="m 938.90826,106.38975 -1.25397,-2.82142 3.76191,-5.015874 7.83729,3.761904 3.13492,3.44841 8.46429,-3.44841 4.70237,-6.26984 1.25397,-10.972216 -5.01587,-8.15079 -3.13492,0.626984 -4.38888,7.210314 4.07539,8.777773 8.46428,4.388887 c 0,0 1.53537,-0.341192 2.30305,-0.511789"/>
    </g>
    <g>
      <title>a</title>
      <path d="m 969.11209,97.413683 c 1.11327,-0.247393 3.33981,-0.742179 3.33981,-0.742179 l -0.94048,5.015866 -3.13492,4.38889 9.40476,-3.44841 1.88095,-8.464281 0,9.091261 3.13492,1.56746 5.33317,-3.37768"/>
    </g>
    <g>
      <title>r</title>
      <path d="m 1003.8011,106.38975 4.4872,-2.54276 4.9175,-2.7866 6.2699,-9.404756 0,4.702378 2.8214,1.56746 3.1349,1.567459 -3.7619,4.388889 -1.5674,7.21031 3.7619,0.31349 6.2698,-1.25396"/>
    </g>
    <g>
      <title>t</title>
      <path d="m 988.1303,101.44461 13.4763,-8.535009 10.9723,-10.345233 10.3452,-23.198401 -18.8095,40.126964 -1.5675,4.702379 1.254,2.19444"/>
      <path d="m 990.94792,73.473103 23.82538,4.702379 17.2421,2.821427"/>
    </g>
    <g>
      <title>l</title>
      <path d="m 1094.69,96.466075 9.4285,-4.810441 10.3452,-6.58333 7.2103,-11.599201 -1.8809,-4.702378 -8.4643,2.821427 -5.9563,15.674595 -3.135,11.599201 0.9405,8.150792 -0.3135,2.50793 5.3294,1.56746"/>
    </g>
    <g>
      <title>i</title>
      <path d="m 1074.375,99.021568 5.2911,-0.15562 7.2103,-5.642855 -1.5674,6.58333 3.4484,-0.313492 5.9326,-3.026856"/>
      <path d="m 1102.551,65.949297 -2.5079,2.821428"/>
    </g>
    <g>
      <title>D</title>
      <path d="m 1171.2058,59.992951 -23.1984,24.765861 -6.5834,10.345233 -2.1944,2.821427 -5.3294,1.567459 -2.5079,-3.761902 6.8968,-3.448411 5.0159,5.956346 10.0317,-2.507935 5.9564,-8.464282 0.627,-8.464281 -1.881,-8.464282 -4.3889,-10.972217 -8.4643,-0.940475 -6.8968,6.269838 -4.3889,5.956346 1.5675,6.58333"/>
    </g>
    <g>
      <title>a</title>
      <path d="m 1160.547,91.969126 7.5238,-3.134919 7.5239,-5.329363 2.8214,0 -6.2699,3.761903 -8.1507,4.702379 0,1.253967 1.8809,2.821427 8.1508,-0.626983 5.0159,-11.285709 -3.4484,10.031741 2.5079,3.134919"/>
    </g>
    <g>
      <title>a</title>
      <path d="m 1185.3129,93.536585 13.7936,-14.107136 -7.8373,9.091266 -2.1944,8.464281 6.8968,-2.821427 7.8373,-7.523806 -0.9405,-9.091265 -1.5674,11.912692 1.8809,5.642855"/>
    </g>
    <g>
      <title>b</title>
      <path d="m 1212.9002,90.088174 18.8095,-9.404757 11.2857,-12.539676 3.7619,-10.658725 -0.9405,-3.761903 -8.7777,2.194443 -9.4048,15.674596 -4.3889,13.480152 -2.5079,6.896822 0.9405,4.388886 5.6428,-2.821427 5.9564,-5.956346 -5.6429,-5.642854 4.7024,4.702378 5.3293,2.821427"/>
    </g>
    <g>
      <title>e</title>
      <path d="m 1237.666,89.46119 9.0913,-4.075394 -5.3293,12.226184 8.1507,-7.210314 4.7024,0 7.5238,-2.507935"/>
    </g>
    <g>
      <title>n</title>
      <path d="m 1261.8049,87.893731 7.2103,-3.761903 8.7778,0 -3.4484,2.821427 -6.2698,9.091265 7.8373,-7.837297 7.5238,-1.56746 4.7023,4.075395 7.5239,2.507935 5.9563,-2.194443"/>
    </g>
    <g>
      <title>b</title>
      <path d="m 126.38719,185.88605 -4.1552,-7.2716 2.77013,-6.57905 3.80893,-4.1552 5.194,2.0776 6.23279,4.15519 6.57906,2.42387 5.88652,-2.42387 1.38507,-2.77013 1.38506,-4.15519 -1.38506,-5.54026 -3.1164,-2.77013 -8.31039,1.73133 -4.50146,8.31039 -3.46266,11.77305 -2.77013,9.00292 0.34626,7.61786 2.77013,2.0776 6.57906,-4.15519 1.38507,-5.54027 -2.77013,-2.42386 10.38799,-0.69253"/>
    </g>
    <g>
      <title>l</title>
      <path d="m 164.47648,181.73085 4.15519,-5.19399 2.42387,-6.92533 -1.73134,-4.84773 -7.61785,10.04173 0,5.54026 -3.1164,8.65665 3.1164,2.42387 9.69545,-2.77013"/>
    </g>
    <g>
      <title>e</title>
      <path d="m 171.4018,188.65618 8.65666,-3.46267 -3.80893,9.00293 6.23279,-6.2328 8.31039,-2.77013"/>
    </g>
    <g>
      <title>ff</title>
      <path d="m 190.79271,185.19351 7.96413,2.0776 5.19399,4.84773 -0.34627,6.92532 -4.15519,4.50147 2.42386,-14.54319 -4.84772,-5.54026 9.69545,-0.34626 -4.84773,1.03879 8.65666,-15.58198 5.88653,-4.15519 5.88652,0.69253 3.46267,3.46266 3.11639,10.73426 -1.0388,6.57906 -2.42386,3.80892 -2.77013,-4.15519 -0.34627,-7.27159 -0.34626,-5.194 6.23279,-8.31039 5.19399,-5.19399 1.38507,7.27159 -9.34919,12.81185 -14.88945,3.1164"/>
    </g>
    <g>
      <title>k</title>
      <path d="m 293.63379,147.45049 -16.96704,3.1164 -6.92533,8.31039 -2.42386,10.38799 -8.65666,11.42678 -4.50146,-0.34626 1.0388,-7.96413 10.04172,-6.23279 8.65666,-1.0388 0.69253,3.46266 -1.38507,8.65666 7.96413,-13.85065 6.92532,-6.57906 -0.69253,8.31039 2.77013,-1.0388"/>
      <path d="m 265.23996,180.69205 8.65666,0 4.15519,-0.69253"/>
    </g>
    <g>
      <title>a</title>
      <path d="m 281.16821,178.96072 4.50146,-5.19399 6.23279,-3.80893 -1.73133,8.65665 -6.57906,2.0776 11.42679,-2.77013"/>
    </g>
    <g>
      <title>l</title>
      <path d="m 307.13818,176.19059 7.96412,2.77013 m -20.08344,-1.0388 4.40853,-2.27106 7.01826,-3.61546 6.57905,-8.31039 1.0388,-9.00293 -0.34626,-0.69253 -9.00293,5.88653 0,11.77305 2.42387,4.50146"/>
    </g>
    <g>
      <title>d</title>
      <path d="m 315.1023,178.96072 5.88653,-3.1164 5.88653,-7.96412 -3.80893,8.31039 6.92532,-1.0388 2.77013,-3.46266 -2.77013,-7.61786 -5.19399,-7.96412 -4.84773,-6.2328 -10.38799,-3.80892 -4.15519,1.03879 0,4.84773"/>
    </g>
    <g>
      <title>e</title>
      <path d="m 340.03347,173.07419 7.2716,-6.23279 -2.77014,8.31039 -1.03879,2.0776 0.34626,3.80893 2.77013,-10.04172 5.194,-0.69254"/>
    </g>
    <g>
      <title>t</title>
      <path d="m 370.15864,145.02663 1.0388,13.15811 -1.0388,9.00293 -7.61786,7.27159 6.92533,-3.1164 3.46266,-0.34626 7.96412,0"/>
      <path d="m 364.61838,163.03247 16.62078,-2.77013"/>
    </g>
    <g>
      <title>a</title>
      <path d="m 465.72813,159.56981 -8.65666,2.42386 -0.34626,4.1552 6.23279,1.73133 7.61786,-5.19399 -3.46267,-7.61786 4.50146,10.73425 2.42387,0 3.38887,-2.17856"/>
    </g>
    <g>
      <title>r</title>
      <path d="m 477.42739,163.62404 6.30658,-4.05423 0.34627,3.46266 3.46266,1.73133 3.46267,0 0,2.77013 2.07759,-5.54026 5.22515,0 3.77778,0"/>
    </g>
    <g>
      <title>e</title>
      <path d="m 502.08609,161.99367 3.46266,-2.07759 7.27159,-2.42387 -0.69253,7.61786 2.77013,-4.50146 9.69545,-0.69253"/>
    </g>
    <g>
      <title>n</title>
      <path d="m 524.59339,159.91608 10.73426,-1.38507 -2.42387,7.61786 4.50147,-6.23279 7.61785,-4.50147 1.38507,4.1552 -3.1164,3.46266 16.27452,-3.46266"/>
    </g>
    <g>
      <title>f</title>
      <path d="m 612.19876,146.41169 -3.1164,-2.77013 -5.54026,-6.23279 -2.42386,-10.04172 -1.73133,-1.73133 -5.54026,-0.34627 -4.84773,11.08052 1.73133,20.08344 -0.34627,14.19692 -2.42386,10.04172 -3.46266,1.0388 -4.1552,-3.1164"/>
      <path d="m 576.18707,160.26234 c 1.0388,1.38507 17.65958,-0.69253 17.65958,-0.69253"/>
    </g>
    <g>
      <title>t</title>
      <path d="m 1066.5623,64.826971 7.2088,2.251543 -5.3907,15.172363 -2.8214,7.523805 -8.7244,4.376752 -3.1319,7.089306 12.1698,-3.942252 3.1349,1.880952 5.3676,-0.157872"/>
      <path d="m 1055.979,89.119842 9.5362,-1.523535 9.9876,2.65208"/>
    </g>
    <g>
      <title>i</title>
      <path d="m 1037.086,138.5214 -1.3298,2.17596 -0.1209,3.02216 0.1209,3.50571 0.9671,1.57153 2.9013,-0.96709"/>
      <path d="m 1032.1296,116.15738 0.1209,2.78039"/>
    </g>
    <g>
      <title>t</title>
      <path d="m 1043.8556,145.17016 c 1.6521,-1.93417 3.3043,-3.86836 4.9564,-5.80255 1.6521,-1.93418 3.3042,-3.86836 4.9563,-5.80256 l 9.4292,-25.62795 -9.7919,26.9577 -0.4835,9.55004 -2.4177,4.35192 5.0772,-2.41773"/>
      <path d="m 1045.9107,116.64093 11.4842,9.55004 4.8355,1.69241"/>
    </g>
    <g>
      <title>z</title>
      <path d="m 1058.8455,142.87332 3.264,-3.14305 4.4728,-5.07724 -3.8684,5.31901 1.6924,4.23103 0.9671,4.83546 -1.088,8.58295 c -1.5304,2.36441 -3.1022,4.70203 -4.7145,7.01142 -0.48,0.68754 -0.9636,1.37257 -1.4507,2.05507 l -7.0114,0.60444"/>
    </g>
    <g>
      <title>C</title>
      <path d="m 480.00187,233.35341 -12.33206,13.59689 -4.42689,11.38344 2.52965,-8.85379 -0.63241,-4.7431 -2.52966,-3.47827 -6.64034,0.94862 -6.00793,7.58896 -3.79448,12.64827 0.94862,7.90517 2.21345,3.47828 3.79448,0.94862 8.22138,-0.94862 4.11068,-2.21345"/>
    </g>
    <g>
      <title>a</title>
      <path d="m 479.05325,261.1796 -3.47827,2.84587 -2.52965,2.52965 2.21344,5.05931 3.79448,-2.52966 4.4269,-4.7431 -0.63241,-6.95655 2.52965,4.7431 3.79448,1.26483 -1.26483,6.64034 8.22138,-1.58103"/>
    </g>
    <g>
      <title>s</title>
      <path d="m 500.43557,266.65148 6.5945,-0.4977 -1.86637,13.06458 1.99079,-12.56688 6.47008,-14.1844 c 2.2298,-3.31184 4.51129,-6.58889 6.84335,-9.82954 1.47302,-2.04692 2.96621,-4.07932 4.47929,-6.0968 l 3.11061,2.36406 -3.48389,9.45627 -2.73734,5.72353 0.74655,1.61752 3.35946,0.24885 3.35946,2.48849 0.24885,2.48849 -4.6037,6.22123 -3.35947,1.24424 8.0876,-7.0922 2.48849,0.12443"/>
    </g>
    <g>
      <title>p</title>
      <path d="m 536.51869,261.55007 2.11522,0.12443 1.11982,2.11521 -1.9908,7.5899 -33.83804,52.37265 38.81503,-59.83812 4.47928,-5.84795 5.10141,-0.62213 0.4977,2.23964 -3.85717,6.71893 -3.23503,2.36407 -6.47008,0.99539"/>
    </g>
    <g>
      <title>e</title>
      <path d="m 557.17317,261.92335 c 1.93787,0.3289 3.94502,0.24349 5.84795,-0.24885 2.44007,-0.63131 4.70217,-1.93637 6.47008,-3.73274 l -5.72353,10.57609 4.85255,-6.71893 10.45167,0.4977"/>
    </g>
    <g>
      <title>r</title>
      <path d="m 583.80002,261.55007 5.10141,-2.73734 1.49309,0.24885 0.12443,5.97238 0.37327,-3.48389 6.34565,1.36867 0.24885,5.59911 1.11982,-6.47008 6.34566,-3.23504 1.36867,0.74655"/>
    </g>
    <g>
      <title>B</title>
      <path d="m 637.19144,273.52339 0.76264,-2.66927 c 1.56656,-0.98982 3.15597,-1.94347 4.76655,-2.85992 1.63129,-0.92824 3.28429,-1.81832 4.9572,-2.66927 l 7.62647,0.76265 4.19456,0.76265 1.14397,3.62257 -2.66927,4.0039 -6.10117,2.66926 -3.24125,1.14397"/>
      <path d="m 665.60003,268.75685 2.09728,2.85992 3.43191,0 5.71985,-3.43191 4.57588,-5.71985 -0.95331,-4.95721 -1.90661,-2.28794 -7.05449,1.14397 5.52919,-6.10117 4.95721,-3.81323 1.33463,-5.71986 -2.09728,-4.19455 -4.38522,-4.0039 -7.24514,-1.14397 -9.53309,4.57588 -6.29184,8.77044 -1.33463,6.29184 0.95331,6.48249 2.4786,3.81324"/>
      <path d="m 683.90355,223.57002 -11.63036,17.54088 -8.9611,10.67705"/>
    </g>
    <g>
      <title>u</title>
      <path d="m 693.43664,259.60508 -2.66926,6.4825 -0.19067,1.90662 3.81324,-0.19066 8.38911,-7.24515 -4.00389,4.76654 -0.38133,3.43192 5.14787,0.76264"/>
      <path d="m 711.74016,227.00193 2.66927,3.05059 -10.29573,6.86382 -2.28794,5.14787 0.19066,5.14786 2.85992,2.85993"/>
    </g>
    <g>
      <title>s</title>
      <path d="m 715.36274,266.08758 6.29183,0 0.95331,1.71596 -2.66926,10.10507 6.29183,-20.01948 4.95721,-8.57978 c 2.63376,-2.38455 5.2397,-4.79981 7.81713,-7.24514 1.7934,-1.70148 3.57298,-3.41751 5.33853,-5.14787 l 2.4786,-0.38132 1.14397,1.33463 -0.38132,4.76654 -6.10118,11.05838 1.90662,0.38132 1.33463,1.14397 1.90662,1.90662 -0.19066,2.85993 -2.09728,6.48249 -4.19456,1.14397 -3.05059,-0.57198 -0.76264,-1.71596 -0.76265,-3.24124 0,1.33463"/>
    </g>
    <g>
      <title>m</title>
      <path d="m 754.25773,262.65567 -1.71596,0 2.66926,-2.66926 5.71986,-1.14397 2.28794,2.85992 -1.90662,3.81324 -4.38522,4.57588 7.05448,-7.62647 6.10118,-1.90662 3.62257,1.14397 0.76265,3.43191 -2.28794,3.81324 8.57977,-8.0078 5.52919,-2.09727 3.05059,0.9533 c -0.79446,1.60509 -1.62088,3.19436 -2.4786,4.76655 -0.55877,1.02422 -1.13082,2.04119 -1.71596,3.05058 l 6.86382,-1.90661"/>
    </g>
    <g>
      <title>a</title>
      <path d="m 796.39396,263.41832 12.965,-8.9611 -8.9611,6.48249 c -0.41336,0.0926 -0.80074,0.29852 -1.10881,0.58927 -0.30807,0.29076 -0.53599,0.6656 -0.65237,1.07291 -0.11637,0.40731 -0.12089,0.84599 -0.0129,1.25561 0.10796,0.40962 0.32811,0.78907 0.63013,1.08611 0.26669,0.26229 0.59637,0.4601 0.95331,0.57199 l 3.24125,0 6.86382,-9.53309 0.95331,7.62647 1.71595,2.09728 3.24125,0.19066"/>
    </g>
    <g>
      <title>n</title>
      <path d="m 824.23057,261.13038 2.66927,-3.05059 4.19456,-1.14397 4.9572,0.38132 0.57198,0.76265 -6.48249,7.81713 7.4358,-7.62647 8.9611,-2.66926 -0.38132,0.95331 -1.52529,6.48249 0.76264,2.28794 2.66927,-0.57198"/>
    </g>
    <g>
      <title>d</title>
      <path d="m 835.47961,242.25487 -2.28794,-11.24904 3.05059,-5.91052 5.52919,-3.81323 4.76654,-0.19066 7.24515,4.9572 5.91051,9.15176 c 1.60079,2.68976 3.12687,5.42399 4.57588,8.19846 0.92108,1.76362 1.81102,3.5435 2.66927,5.33853 l 1.33463,8.19845 0.19066,4.00389 c -1.59605,0.61733 -3.18503,1.25293 -4.76654,1.90662 -1.78928,0.73957 -3.56899,1.5023 -5.33853,2.28794 l -1.14397,-1.14397 2.28794,-3.81323 c 1.72937,-1.12367 3.44549,-2.26775 5.14787,-3.43191 0.82948,-0.56723 1.6557,-1.13923 2.4786,-1.71596"/>
    </g>
    <g>
      <title>1</title>
      <path d="m 889.68066,273.20455 13.33016,-21.35692 3.72672,0.14334 -8.02677,15.76685 0,4.44339 1.00335,1.86335 5.44673,-4.01338"/>
      <path d="m 913.61762,235.22076 -0.86001,2.86671"/>
    </g>
    <g>
      <title>d</title>
      <path d="m 922.36106,266.61114 0.14333,-3.15337 1.57669,-2.00669 4.01338,0 3.15337,2.72337 1.29001,3.15337 5.16007,-0.86001 4.01338,-3.29671 5.44673,-7.02342 2.29336,-7.74009 0.28667,-3.29671 -1.57669,-6.73674 -3.87004,-1.29002 -2.29336,6.30674 0,9.89012 2.72336,6.88008 5.3034,2.29336"/>
    </g>
    <g>
      <title>a</title>
      <path d="m 968.80161,250.70095 -7.31009,5.44673 -3.87004,5.16006 -1.00335,3.29671 1.00335,2.8667 1.72002,-0.14333 4.87339,-4.44339 2.72337,-4.87339 2.15002,-4.58672 1.43335,2.72336 1.43335,0.57334 -2.58003,6.16341 -0.86001,6.59341 1.43335,2.15003"/>
    </g>
    <g>
      <title>t</title>
      <path d="m 974.10501,269.19117 4.87339,-3.01003 c 1.82702,-2.2363 3.64263,-4.48192 5.44673,-6.73675 1.82741,-2.28396 3.64302,-4.57736 5.44673,-6.88008 2.94557,-4.55587 5.76592,-9.1927 8.45677,-13.9035 2.97947,-5.21599 5.80007,-10.52266 8.45677,-15.91019 l -16.19686,29.95702 -1.14668,7.16675 0.71667,3.87005"/>
      <path d="m 991.30522,239.80749 8.02676,2.29336 5.30342,0.28667 c 3.6306,-0.082 7.2619,-0.12982 10.8934,-0.14334 1.4334,-0.005 2.8667,-0.005 4.3001,0 l 3.7267,-0.43"/>
    </g>
    <g>
      <title>r</title>
      <path d="m 994.17192,261.59441 4.87339,-2.72336 4.30009,-5.44673 -2.4367,5.59006 1.0033,2.72337 4.0134,-0.14334 0.7167,3.01004 -2.0067,8.1701 -0.2867,2.8667 3.44,-0.14334 7.3101,-2.8667"/>
    </g>
    <g>
      <title>b</title>
      <path d="m 1046.4892,252.56431 0.5734,-5.59007 3.5833,-3.72671 6.3068,-2.15003 4.1567,5.3034 4.8734,1.57668 7.0234,-2.29336 4.8734,-4.30005 2.8667,-4.15671 0.43,-5.59007 -2.0067,-6.16341 -2.8667,-0.71667 -4.1567,0.86001 -5.7334,6.88008 c -1.8759,3.28958 -3.7393,6.58632 -5.5901,9.89012 -2.2159,3.95554 -4.4137,7.9212 -6.5934,11.89681 -0.4572,2.11855 -0.9832,4.22227 -1.5767,6.30674 -0.5215,1.83141 -1.0951,3.64797 -1.72,5.44673 l 0.43,1.43335 c 1.0519,-0.42818 2.103,-0.85818 3.1534,-1.29001 1.3869,-0.57016 2.7724,-1.14351 4.1567,-1.72002"/>
    </g>
    <g>
      <title>l</title>
      <path d="m 1062.3994,254.14099 0.5733,4.15672 1.0034,1.43335 5.16,0.28667 7.1668,-1.57669 7.3101,-3.58337 5.8767,-4.01338 4.0134,-5.3034 1.72,-2.72337 -0.5733,-4.87339 -2.58,-1.14668 -5.7334,3.87005 -5.0168,6.59341 c -0.42,1.81791 -0.8501,3.63353 -1.29,5.44673 -0.5574,2.2973 -1.1308,4.59074 -1.72,6.88008 l -0.1433,4.44339 0.86,2.15003 1.5767,0.57334 2.15,-1.00335"/>
    </g>
    <g>
      <title>e</title>
      <path d="m 1087.053,265.03446 6.1634,-4.15672 -3.5833,7.88343 3.1533,-4.73006 4.5868,1.43335 3.44,3.44004"/>
    </g>
    <g>
      <title>ff</title>
      <path d="m 1104.9699,265.03446 8.8868,-4.01339 3.1534,-0.57334 1.0033,3.15337 0.5733,11.46681 0.5734,-11.46681 3.01,-7.74009 6.1634,-9.31678 5.1601,-5.7334 3.2967,-0.57334 4.5867,3.44004 c 0.8931,3.31439 1.8489,6.61189 2.8667,9.89012 0.8199,2.64071 1.68,5.26893 2.58,7.88343 l -3.5833,4.73006 -4.4434,1.86335 -1.4334,-1.57668 0.86,-6.45008 3.0101,-7.16675 7.7401,-10.32013"/>
      <path d="m 1122.0268,258.72771 c 2.8171,-0.44223 5.636,-0.87224 8.4568,-1.29001 3.342,-0.49497 6.6865,-0.97276 10.0334,-1.43335"/>
    </g>
    <g>
      <title>k</title>
      <path d="m 1223.078,217.59055 -16.3402,-0.43 -9.4601,4.01338 -8.3134,5.16006 -4.5868,7.59676 -1.29,5.16006 -2.0067,4.58672 -5.4467,2.8667 -7.0234,2.58003 -3.4401,4.01339 -3.01,10.17678 1.0033,3.29671 2.4367,-6.73675 2.0067,-2.15002 3.1534,0.28667 1.5767,2.8667 2.4367,2.72336 6.7367,2.58004 2.4367,-0.57334"/>
      <path d="m 1196.8477,227.76734 5.7334,-0.43 3.5834,2.8667 2.0066,3.72671 -2.15,7.31009 -7.4534,8.17009 -5.4467,2.86671 -4.5868,1.43335 c -2.179,-0.13952 -4.32,-0.83659 -6.1634,-2.00669 -0.6625,-0.4205 -1.2869,-0.90088 -1.8633,-1.43335 l -0.43,1.29001 2.7233,3.58338 -2.4367,4.73005"/>
    </g>
    <g>
      <title>a</title>
      <path d="m 1196.131,258.01104 -4.5867,2.58003 -1.1467,3.01003 3.01,2.86671 4.0134,-1.57669 5.4468,-2.72337 0.43,-8.31343 0.1433,4.73006 c -0.4356,0.78531 -0.6192,1.70798 -0.5172,2.60022 0.102,0.89224 0.4889,1.74972 1.0905,2.4165 0.7956,0.8818 1.9659,1.41377 3.1534,1.43336 l 6.4501,-0.86001"/>
    </g>
    <g>
      <title>l</title>
      <path d="m 1218.4913,262.45442 3.44,-1.57668 6.5934,-4.44339 4.8734,-8.31343 3.0101,-9.03011 -0.8601,-0.86001 -5.4467,6.02007 c -1.6352,3.68193 -3.1649,7.41068 -4.5867,11.18014 -0.5921,1.56977 -1.1655,3.14661 -1.72,4.73005 l -0.2867,5.3034 1.8634,2.15003 3.1533,0.14333"/>
    </g>
    <g>
      <title>d</title>
      <path d="m 1239.7049,257.72437 -6.1634,6.30674 1.4333,6.59341 6.5934,2.00669 4.1567,-4.58672 2.5801,-6.02007 0,-7.59676 -4.4434,-15.05018"/>
    </g>
    <g>
      <title>e</title>
      <path d="m 1254.1817,260.01773 4.4434,-1.29002 1.4333,6.73675 -0.2866,2.58003 0.7166,-8.1701 3.5834,-4.01338 1.72,3.72671"/>
    </g>
    <g>
      <title>t</title>
      <path d="m 1272.3853,260.16106 7.31,-3.01003 7.4535,-6.73675 6.5934,-7.88343 6.5934,-9.17344 2.15,-5.7334 -4.0134,14.04683 c -0.8851,3.99818 -1.6975,8.01245 -2.4367,12.04015 -0.743,4.04849 -1.4121,8.11055 -2.0067,12.18348 l 1.8634,2.43669 3.2967,-0.86001 4.5867,-4.73006"/>
      <path d="m 1271.5252,242.10085 15.1936,-0.57334 13.0434,1.86335 12.0402,-1.43335 3.7267,-0.14333"/>
    </g>
    <g>
      <title>D</title>
      <path d="m 139.88556,339.74261 -5.19226,0.61086 -6.71939,0 -6.41397,-2.13799 -3.35969,-2.44342 0,-6.41396 c 1.73075,-1.73075 3.4615,-3.46151 5.19225,-5.19226 2.03618,-2.03618 4.07236,-4.07236 6.10854,-6.10854 l 6.41397,-4.88684 6.41397,1.52714 4.27598,2.74884 2.74884,7.63568 -1.22171,10.99537 -5.80311,14.35507 -5.49769,6.41396 -5.49768,1.52714 -5.19226,-2.74884 -3.66513,-2.44342 -5.49768,0.30543 -2.74884,4.27598 0.61085,1.83256 3.05427,0 5.80311,-4.58141 6.10854,-6.41396 3.05427,-7.63568 2.74884,-9.46824 4.58141,-8.24653 8.55196,-9.1628"/>
    </g>
    <g>
      <title>o</title>
      <path d="m 159.13072,342.8399 -3.32844,2.37745 -2.53594,4.12091 1.42647,3.48693 4.7549,-1.74346 2.85294,-1.58497 2.06046,-3.16994 -2.37745,-3.32843 -1.42647,0.1585 6.97385,2.69444"/>
    </g>
    <g>
      <title>r</title>
      <path d="m 176.56536,345.69284 7.13235,-1.10948 -3.16994,5.54739 4.59641,-1.90197 3.64542,-0.15849 1.26798,1.90196 0,3.32843 3.16993,-8.55882 0,-1.74347 3.64543,1.74347 5.70588,-0.317"/>
    </g>
    <g>
      <title>e</title>
      <path d="m 206.99673,342.20591 6.33987,-0.63399 2.21895,-1.90196 -1.26797,4.7549 -0.1585,3.96242 1.26797,-4.9134 5.38889,-2.06045 4.9134,-0.63399"/>
    </g>
    <g>
      <title>t</title>
      <path d="m 229.34477,336.81702 6.33987,-2.85294 3.64542,-4.43791 4.59641,-7.13235 5.54738,-6.97386 7.60784,-11.57026 -19.65359,42.16013 2.06046,-0.63399 6.65686,-2.53594"/>
      <path d="m 232.03921,332.53761 9.03432,1.26797 12.20424,-1.74346"/>
    </g>
    <g>
      <title>h</title>
      <path d="m 241.70751,352.82519 11.88726,-2.53595 5.07189,-4.43791 c 1.62308,-3.52253 3.20817,-7.06257 4.7549,-10.61928 1.35011,-3.10458 2.67099,-6.22186 3.96242,-9.3513 l 4.12092,-7.13236 4.27941,-5.54738 3.16993,-0.63399 1.74347,3.16994 -0.63399,3.80392 -4.5964,5.38889 -7.13236,4.7549 -5.38889,6.97385 c -1.83743,6.09612 -3.89976,12.12446 -6.18137,18.06863 -1.35016,3.5175 -2.77708,7.00553 -4.27941,10.46078 l -5.38889,9.03432 -6.18137,6.18137 -3.96242,0.63399 -2.21895,-2.06046 -0.1585,-4.5964 6.02287,-9.19282 8.71733,-11.25326 8.71732,-7.76634 9.98529,-6.81536"/>
    </g>
    <g>
      <title>e</title>
      <path d="m 271.5049,338.56048 3.80392,0.1585 3.96242,-7.13235 -6.02288,14.2647 3.48693,-6.97385 7.92484,-1.42647"/>
    </g>
    <g>
      <title>a</title>
      <path d="m 288.78104,336.02454 6.65686,-0.95098 5.54739,-4.75491 3.32843,-1.90196 -7.13235,5.38889 -0.79249,4.59641 2.69445,-0.63399 5.07189,-0.47549 2.53595,-2.69444 -1.74346,-4.27942 3.16993,4.12092 0.47549,4.7549 2.85294,0.31699 5.38889,-1.42647 4.7549,-5.54738"/>
    </g>
    <g>
      <title>n</title>
      <path d="m 500.77328,320.78481 7.82652,-3.22999 3.85115,-0.37269 2.8573,0.37269 2.11192,1.73923 -5.71461,6.08729 6.95691,-7.08114 5.21769,-1.11807 c 0.74258,0.14035 1.48819,0.26462 2.23615,0.37269 0.6609,0.0955 1.32362,0.17833 1.98769,0.24846 l 0.12423,1.86346 -2.73308,3.85115 4.22384,-2.85731 2.98153,-0.12423"/>
    </g>
    <g>
      <title>e</title>
      <path d="m 536.42744,319.9152 4.72076,-0.99384 4.09961,-2.48462 -3.35423,7.7023 3.23,-5.83884 3.22999,-1.49076 4.4723,0.62115 2.36038,-1.11808"/>
    </g>
    <g>
      <title>S</title>
      <path d="m 938.97175,302.00911 c 1.20218,-1.43843 2.4351,-2.85115 3.69765,-4.23689 0.7097,-0.77894 1.42875,-1.54936 2.15696,-2.31103 l 0.30814,-3.23545 -0.30814,-4.15985 -3.69765,5.00723 0.77035,3.85172 3.62061,2.31103 5.08427,0 4.9302,0.53924 3.85171,1.61772 1.61773,3.31248 0.30813,4.08282 -2.6962,3.00434 -3.54358,2.77324 -4.23689,-0.53924 -2.00289,-3.38951 0.077,-5.00724 1.61772,-5.23833 c 1.17615,-1.51388 2.38336,-3.00363 3.62062,-4.468 1.32683,-1.57038 2.68821,-3.11156 4.08282,-4.62206 1.45289,-0.99178 2.91666,-1.96763 4.39096,-2.9273 1.19996,-0.7811 2.40689,-1.55148 3.62061,-2.31103 l 2.92731,-1.07848 3.85171,0.4622 0.92442,1.07848 -0.23111,0.61628"/>
    </g>
    <g>
      <title>a</title>
      <path d="m 970.55584,305.62972 -3.15841,3.46655 -0.30814,3.77468 3.38951,0.46221 3.15841,-3.38951 3.77468,-3.08138 0.84738,-3.00434 -0.38517,4.23689 0.69331,1.61772 2.85027,1.46366 2.15696,-0.84738"/>
    </g>
    <g>
      <title>r</title>
      <path d="m 987.27229,309.40441 4.9302,-1.77179 3.62061,-3.08138 1.15552,-1.84882 -3.46655,5.70054 -2.31103,5.54647 3.69765,-3.54358 3.00434,-0.30814 1.30959,1.07849 -0.15407,3.77468 1.46365,-4.31392 2.157,-4.00579 1.1555,-0.69331 c 0.8969,-0.079 1.7962,-0.13037 2.6962,-0.15407 0.7702,-0.0203 1.5408,-0.0203 2.311,0"/>
    </g>
    <g>
      <title>a</title>
      <path d="m 1013.0788,305.39862 c 0.8017,-0.23887 1.598,-0.49574 2.3881,-0.77034 0.9596,-0.33351 1.9102,-0.69318 2.8502,-1.07849 l 3.1584,-1.46365 -4.7761,2.6962 -2.311,2.07993 -0.077,3.85172 1.3096,1.92586 2.4651,-1.00145 3.0044,-2.38806 2.5421,-3.69765 -0.6163,-4.23689 c 0.3203,2.21898 0.7057,4.42856 1.1555,6.62495 0.2163,1.05599 0.4474,2.10894 0.6934,3.15841 l 1.4636,1.77179 3.0814,-0.53924 4.545,-1.69475 4.545,-3.85172"/>
    </g>
    <g transform="translate(1.2815263,0.3808767)">
      <title>a</title>
      <path d="m 603.53277,156.61295 -1.25659,2.51318 0.73917,2.95668 2.21751,0.887 2.1436,-1.70009 2.29142,-1.18267 0.66526,-7.76129 1.70009,6.0612 1.33051,3.40018 4.87852,0.73917"/>
    </g>
    <g transform="translate(1.2815263,0.3808767)">
      <path d="m 626.07747,158.09129 3.40019,-0.59134 7.16995,-7.3917 -6.28295,6.57862 -1.03484,3.17843 1.70009,2.43926 2.66102,0.0739 3.54802,-2.51318 1.3305,-4.13936 0,-6.28295 -1.03483,-6.28295 -2.5871,-4.3611"/>
    </g>
    <g transform="translate(1.2815263,0.3808767)">
      <title>d</title>
      <path d="m 643.22623,158.09129 1.99576,-1.25659 3.32627,1.18267 2.88276,1.62618 2.51318,-0.88701 2.80885,-2.51318 2.73493,-4.65677 c -0.20494,-1.67452 -0.40206,-3.35 -0.59134,-5.02636 -0.26133,-2.31445 -0.50773,-4.63058 -0.73917,-6.94821 l -2.21751,-2.88276 -4.50894,3.10452 -0.29567,7.24387 1.99576,4.43502 3.69586,3.76977"/>
    </g>
    <g transform="translate(1.2815263,0.3808767)">
      <title>r</title>
      <path d="m 683.80669,154.61719 6.65254,-1.70009 3.25235,0.887 -1.62618,3.9176 2.88277,-3.0306 2.36534,1.25659 0.22176,5.1742 0.36958,-7.16996 1.03484,-1.10875 5.32203,2.36534"/>
    </g>
    <g transform="translate(1.2815263,0.3808767)">
      <title>n</title>
      <path d="m 711.44846,154.22746 5.9696,-3.198 3.4112,-0.2132 2.5584,2.132 0.6396,1.9188 -2.3452,4.0508 2.132,-5.1168 3.6244,-2.9848 5.1168,1.2792 -2.7716,6.8224"/>
    </g>
    <g transform="translate(1.2815263,0.3808767)">
      <title>e</title>
      <path d="m 738.73806,155.71986 7.0356,-3.8376 -1.4924,7.8884 3.198,-5.1168 4.4772,-0.4264"/>
    </g>
    <g transform="translate(1.2815263,0.3808767)">
      <title>e</title>
      <path d="m 668.59526,156.78586 5.33,-3.6244 -1.2792,8.7412 4.0508,-5.5432 3.6244,-0.4264"/>
    </g>
    <g transform="translate(1.2815263,0.3808767)">
      <title>L</title>
      <path d="m 954.03688,142.9942 -2.17596,-2.90127 -1.8133,-3.38483 0,-3.6266 0.84621,-3.62659 3.26394,-2.78039 4.59369,2.05507 3.74748,6.2861 2.05507,1.8133 4.59369,1.57152 4.23103,-1.20886 3.38483,-2.78039 0.12089,-8.22029 0.36266,-3.38483 -2.41774,-2.41773 -4.59369,1.8133 -8.70383,9.79181 -5.56078,10.8798 -5.19813,5.19812 -5.80255,1.69241 6.64876,0.60443 2.90128,2.90128 3.26394,0.48355 3.74748,-0.96709"/>
    </g>
    <g transform="translate(1.2815263,0.3808767)">
      <title>a</title>
      <path d="m 970.23568,146.01637 -4.4728,3.38482 0.96709,3.74749 6.2861,-2.17596 2.90128,-3.6266 -1.20886,-5.07724 1.93418,7.37409 1.8133,1.32975 3.6266,-0.36266"/>
    </g>
    <g transform="translate(1.2815263,0.3808767)">
      <title>u</title>
      <path d="m 992.84147,143.23598 -2.6595,3.86837 0.72532,2.6595 4.23103,-1.20886 6.04428,-6.89054 -4.83542,4.4728 1.08798,3.02217 3.26394,0.36266 1.8133,-0.84621"/>
      <path d="m 1000.0947,117.97068 -5.43993,7.37408 -0.96709,5.07724 1.69241,3.74748 2.41773,2.05507"/>
    </g>
    <g transform="translate(1.2815263,0.3808767)">
      <title>r</title>
      <path d="m 1008.315,146.13725 2.1759,-3.14305 3.5057,-1.8133 2.4178,0.60444 -0.8462,6.04433 -0.8463,1.69241 3.264,-3.02217 1.3297,1.20887 0,6.16522 1.4507,-10.03359 1.9342,-3.14305 3.7474,1.08798 4.5937,-0.12089"/>
    </g>
    <g transform="translate(1.2815263,0.3808767)">
      <title>d</title>
      <path d="m 587.66836,202.27674 5.09065,3.79642 4.14155,1.38052 3.8827,-0.5177 4.05526,-3.01987 c 0.44076,-1.52165 0.87219,-3.04601 1.29424,-4.57296 0.56317,-2.03749 1.10964,-4.0796 1.63936,-6.12604 l -0.17256,-7.7654 -0.86283,-6.38489 -1.89821,-0.77654 -4.05526,3.71014 -1.03539,5.78091 1.12167,5.26321 4.22783,3.01988 c 0.71164,0.50832 1.39794,1.05068 2.07709,1.60166 0.67915,0.55098 1.39161,1.1081 2.23702,1.33194 0.68281,0.18079 1.42731,0.11874 2.07078,-0.17257"/>
    </g>
    <g transform="translate(1.2815263,0.3808767)">
      <title>a</title>
      <path d="m 616.40034,197.18609 2.67475,-0.17256 6.21233,-4.22783 -6.03976,5.26321 -0.60398,3.8827 1.38052,2.58847 2.32962,-0.43141 3.10616,-2.4159 0.51769,-2.76103 c -0.0224,-0.89177 -0.0512,-1.78339 -0.0863,-2.67475 -0.0464,-1.1797 -0.10397,-2.35896 -0.17256,-3.53758 l 1.89821,2.07078 3.79642,2.67475 -0.43142,2.93359 1.55308,3.19245 3.01988,0.0863"/>
    </g>
    <g transform="translate(1.2815263,0.3808767)">
      <title>t</title>
      <path d="m 640.12796,201.58649 4.05527,-2.15706 c 1.0062,-1.27249 1.98438,-2.56715 2.93359,-3.8827 0.98034,-1.3587 1.92977,-2.73969 2.84732,-4.14155 l 4.91809,-10.35387 1.81192,-8.7145 0.0863,-6.21233 -1.81192,2.24334 -2.50219,10.78528 -1.12167,10.699 c 0.48269,2.00802 0.9429,4.02144 1.38052,6.03976 0.39204,1.80812 0.76596,3.62017 1.12167,5.43578 l 2.67475,2.15705"/>
      <path d="m 633.65679,182.69067 c 4.8318,-0.01 9.66362,-0.01 14.49542,0 3.79642,0.008 7.59289,0.0217 11.38926,0 2.44481,-0.014 4.88953,-0.0428 7.33399,-0.0863 l 3.8827,-1.4668"/>
    </g>
    <g transform="translate(1.2815263,0.3808767)">
      <title>r</title>
      <path d="m 660.05916,201.58649 2.76103,-2.84732 4.57296,-6.47117 -1.38052,4.91809 0.25885,2.50219 2.4159,1.38051 2.67475,0.34513 -1.81192,3.27873 0.43141,3.27872 1.4668,1.03539 3.62385,0.60397 5.09065,-1.03538 c 0.32758,-0.84118 0.67281,-1.67549 1.03539,-2.50219 0.53746,-1.22545 1.11305,-2.43418 1.72564,-3.62385 l 0.60398,-5.00437"/>
    </g>
    <g transform="translate(1.2815263,0.3808767)">
      <path d="m 780.68174,194.77019 -3.96899,-4.65924 -1.81192,-4.31411 0.77654,-8.45566 2.15705,-6.38489 5.3495,-2.9336 3.62385,-1.12167 3.53758,2.9336 -5.3495,13.28747 -3.45129,15.5308 -5.43578,14.23657 -8.19682,13.46003 -5.52206,4.65924 -5.86719,2.4159 -4.22783,-1.20795 -2.15706,-5.09065 1.03539,-5.43578 2.76103,-4.83181"/>
      <path d="m 767.30799,200.63738 c 2.61689,-0.0718 5.23417,-0.12933 7.85168,-0.17256 2.58829,-0.0427 5.1768,-0.0715 7.7654,-0.0863 l 6.8163,-1.20795"/>
    </g>
    <g transform="translate(1.2815263,0.3808767)">
      <title>e</title>
      <path d="m 793.10638,199.25686 5.17693,-0.60397 5.00437,-5.60835 c -0.94042,2.34476 -1.5522,4.82106 -1.81192,7.33399 -0.15692,1.5183 -0.18582,3.04982 -0.0863,4.57296 l 1.03539,-6.38488 3.71014,-0.69026 2.67475,1.03539"/>
    </g>
    <g transform="translate(1.2815263,0.3808767)">
      <title>n</title>
      <path d="m 814.15925,198.82545 4.14154,-1.03538 3.62386,-1.38052 2.50218,0 0,1.4668 -3.71013,6.8163 3.10616,-3.8827 3.96898,-4.22783 3.19244,-1.89821 2.9336,-1.03539 1.20795,0.25885 -0.43141,3.45129 -1.38052,4.91808 0,1.63937 3.62386,-3.01988 7.16142,-3.27873"/>
    </g>
    <g transform="translate(1.2815263,0.3808767)">
      <title>s</title>
      <path d="m 848.49958,195.11532 5.09065,-3.27873 2.4159,-3.10616 c -0.97004,-0.45914 -2.12467,-0.51231 -3.13281,-0.14426 -1.00813,0.36804 -1.85692,1.15262 -2.30297,2.12875 -0.41656,0.91159 -0.47937,1.97946 -0.17256,2.9336 l 4.91809,1.38052 4.48667,-0.60398 c 1.89681,-0.0955 3.79552,-0.15301 5.69463,-0.17257 0.97783,-0.0101 1.95577,-0.0101 2.9336,0 l 0.9491,1.4668 0.43141,2.9336 -0.51769,2.15706 -3.96898,2.07077 -3.10616,-0.34513 -0.94911,-3.27873 -0.51769,-4.74552 -0.86283,-4.05526 0.77655,-2.67475 3.53757,-3.45129 1.29423,-3.27873 2.67475,-2.84731 -4.91809,-3.19245 -1.98449,-3.19244 1.03539,-5.09065 3.01988,-3.53757 4.05526,-2.67475"/>
    </g>
    <g transform="translate(0.07382181,0.36580387)">
      <title>4</title>
      <path d="m 65.617646,296.71735 -16.48366,0.31699 -10.302287,1.42647 -6.973856,1.42647 9.6683,-11.57026 4.913399,-8.40033 3.486928,0.1585 -4.913399,13.15523 -1.743464,12.36274 -0.792484,11.57027"/>
    </g>
    <g transform="translate(0.07382181,0.36580387)">
      <title>3</title>
      <path d="m 77.504901,291.01147 -1.267974,-6.81536 3.328431,-4.59641 5.547386,-3.01144 6.022875,-0.31699 3.011438,4.12091 0.47549,3.80393 -9.985294,8.55882 3.328432,0.95098 0.792483,4.43791 -2.218954,5.23039 -5.705882,4.43791 -3.803922,-0.31699"/>
    </g>
    <g transform="translate(0.07382181,0.36580387)">
      <title>d</title>
      <path d="m 125.21242,280.39218 -2.06046,-2.69444 -0.47549,-6.18137 2.85294,-8.40033 c 2.29641,-1.05807 4.56897,-2.16793 6.81536,-3.32843 1.49105,-0.77029 2.97058,-1.56289 4.43791,-2.37745 l 6.81536,0.1585 3.96241,3.48692 2.53595,7.29085 0.317,10.93628 c -0.45298,2.85663 -0.92849,5.70969 -1.42647,8.55882 -0.60126,3.44003 -1.23529,6.87434 -1.90197,10.30229 l -5.54738,3.80392 -2.69445,-1.90196 0.317,-6.81536 5.23039,-5.86438 5.70588,-4.43791"/>
    </g>
    <g transform="translate(0.07382181,0.36580387)">
      <title>e</title>
      <path d="m 164.5196,291.80395 5.38889,-1.90196 3.96242,-2.85294 0.47549,-3.01144 -5.86438,0.63399 -6.81536,8.40032 -0.63398,4.7549 2.21895,1.90197 6.18137,1.74346 4.43791,-2.69444"/>
    </g>
    <g transform="translate(0.07382181,0.36580387)">
      <title>n</title>
      <path d="m 177.67483,295.76637 3.96242,-5.70588 2.21896,-4.12092 3.80392,-3.16993 2.21895,-0.317 0,4.12092 -7.44934,11.72876 7.76634,-12.04576 1.42647,-3.01143 4.27941,-0.79249 4.43791,0.63399 -3.16994,4.9134 -1.58497,4.12091 1.10948,3.80392 1.90196,-1.10947"/>
    </g>
    <g transform="translate(0.07382181,0.36580387)">
      <title>2</title>
      <path d="m 215.87255,290.53598 0.15849,-5.2304 2.06046,-3.96241 3.48693,-2.53595 3.96242,-1.26798 2.85294,1.10948 1.58496,3.01144 0.1585,3.48693 -1.10948,3.16993 -6.18137,5.70588 10.46079,-1.10947"/>
    </g>
    <g transform="translate(0.07382181,0.36580387)">
      <title>5</title>
      <path d="m 278.95424,280.23369 -7.29085,0.63398 -6.18137,-1.26797 -1.42647,-3.80392 -0.31699,-4.12092 -7.13236,5.70589 -4.4379,5.38889 -1.10948,3.80392 5.23039,0.31699 2.85294,1.42647 0.1585,2.21896 -0.63399,2.21895 -3.32843,3.64542 -4.43791,1.58497 -1.58496,0"/>
    </g>
    <g transform="translate(0.07382181,0.36580387)">
      <path d="m 324.4428,256.30068 -16.16666,31.38235 0,4.12092 10.30229,-22.98203 0,-5.38889 -3.64543,-4.5964 -5.38889,6.33987 c -3.07583,5.89142 -6.29996,11.70542 -9.6683,17.43464 -2.60864,4.43704 -5.30376,8.82322 -8.08333,13.15523 l -5.23039,5.23039 5.07189,-9.35131"/>
      <path d="m 309.22712,272.46735 -10.30229,-0.95098 -6.33987,1.90196 c 0.24155,0.61825 0.56195,1.20565 0.95098,1.74346 1.36839,1.89168 3.61885,3.11595 5.95043,3.23707 2.33159,0.12112 4.69679,-0.86337 6.25382,-2.60308 l 17.91013,-3.32843"/>
    </g>
    <g transform="translate(0.07382181,0.36580387)">
      <path d="m 327.45424,271.04088 5.54739,-1.58497 -5.70588,9.35131 c -2.02574,6.01681 -4.03338,12.03972 -6.02288,18.06862 -1.11518,3.37939 -2.22466,6.76067 -3.32843,10.1438 l -8.08333,13.47222"/>
      <path d="m 340.45097,269.7729 2.53595,-1.10947 1.42647,0.47549 0.95098,2.21895 -1.58496,6.49837 -4.43791,2.85294 -4.27941,3.32843"/>
    </g>
    <g transform="translate(0.07382181,0.36580387)">
      <title>r</title>
      <path d="m 352.65522,273.10134 0.79249,-2.37746 3.64542,-0.31699 2.21896,0.63399 -2.21896,8.87581 -7.60784,8.87582 8.40032,-9.03431 0,6.65686 3.80393,-12.67974 3.96241,-4.7549 3.01144,-2.69444 3.80392,0.63398 1.74347,3.01144"/>
    </g>
    <g transform="translate(0.07382181,0.36580387)">
      <title>i</title>
      <path d="m 378.64869,272.94284 1.42647,-4.12092 5.23039,-2.06045 2.37745,0.63398 0.79248,4.59641 -4.9134,8.55882 6.33987,-2.06046"/>
      <path d="m 390.37744,257.56866 3.96242,-0.63399"/>
    </g>
    <g transform="translate(0.07382181,0.36580387)">
      <title>l</title>
      <path d="m 393.86437,275.63728 7.92484,-4.27941 6.18137,-7.13235 9.98529,-14.7402 1.58497,-4.5964 -2.21895,-1.74347 -5.54739,7.76634 -4.12091,6.97386 -3.16994,11.25327 -2.37745,12.04575 0.1585,4.12091 6.33987,-2.53594 6.65686,-3.48693 3.16994,-4.59641"/>
    </g>
    <g transform="translate(0.07382181,0.36580387)">
      <path d="m 349.95741,347.49438 3.22999,4.09961 2.85731,-0.24847 2.8573,-3.60268 0.99384,-6.95691 3.35423,-6.58422 -0.24846,-5.59037 c 0.4539,-4.13691 0.86803,-8.27819 1.2423,-12.42306 0.26907,-2.97977 0.51754,-5.96139 0.74539,-8.94459 l 1.49076,-6.58422 3.35423,-3.35423 3.72691,-2.60884 3.47846,0.37269 5.96306,-3.97537 -6.83268,3.60268 -1.11807,5.21768 0.62115,3.35423 -1.98769,4.84499 2.85731,-3.35423 1.86345,-1.2423 2.73307,0.24846 3.10577,1.11808 5.7146,0.12423 2.36038,-0.3727"/>
      <path d="m 349.21203,330.72326 c 2.89879,-0.12239 5.79751,-0.24662 8.69614,-0.3727 2.81597,-0.12249 5.63186,-0.24672 8.44767,-0.37269 l 4.4723,-0.49692"/>
    </g>
    <g transform="translate(0.07382181,0.36580387)">
      <title>a</title>
      <path d="m 378.65466,326.25096 -1.49076,0.74538 -0.74539,3.10576 -0.37269,4.09961 0.24846,0.49692 1.36654,0.62116 2.23615,-1.98769 4.4723,-3.47846 1.615,-2.23615 0,-3.97537 0,-3.97538 2.11191,-1.615 -1.73922,3.47846 0.49692,3.72691 3.60268,0.99385 -1.73922,0.24846 -0.74539,3.35422 1.49077,2.8573 2.23615,1.615 4.72076,-1.98769"/>
    </g>
    <g transform="translate(0.07382181,0.36580387)">
      <title>d</title>
      <path d="m 383.25119,311.71598 -0.62115,-6.21152 0.86961,-4.72076 4.09961,-4.96922 3.97538,-1.24231 4.34807,0.99385 2.8573,2.48461 c 1.16578,1.27801 2.32529,2.56174 3.47846,3.85114 1.17384,1.31251 2.34123,2.63102 3.47845,3.97538 1.6376,1.93587 3.2123,3.92496 4.72076,5.96307 l 3.35423,5.59037 1.36653,5.96306 -0.24846,3.60269 -1.615,3.22999 -3.97537,1.36654 -3.23,0.12423 -0.37269,-2.23615 1.11808,-2.98153 2.73307,-3.60269 2.11192,-1.73922 2.36038,0.12423"/>
    </g>
    <g transform="translate(0.07382181,0.36580387)">
      <title>d</title>
      <path d="m 421.38997,328.36288 1.49076,-1.73923 3.10577,-0.74538 1.61499,2.36038 1.49077,1.49076 2.36038,0.24846 3.22999,-0.99384 2.36038,-2.23615 0.62116,-2.23615 0.62115,-4.09961 c 0.0925,-1.11733 0.17528,-2.23546 0.24846,-3.35422 0.10286,-1.57245 0.18666,-3.14616 0.24846,-4.72076 0.0682,-1.73845 0.10965,-3.47796 0.12423,-5.21769 l -0.49692,-1.86345 -4.22384,1.61499 -2.60884,4.72076 0.24846,2.48461 1.615,3.97538 2.73307,3.72692 2.36038,2.11192 5.09345,1.2423"/>
    </g>
    <g transform="translate(0.07382181,0.36580387)">
      <title>e</title>
      <path d="m 448.96915,324.88442 1.98768,-0.12423 4.72076,-3.72692 -1.98768,9.44153 1.73922,-4.845 2.23615,-1.49076 2.23615,1.61499 4.96922,-0.62115"/>
    </g>
    <g transform="translate(0.07382181,0.36580387)">
      <g>
        <path d="m 468.84603,323.14519 3.22999,-1.73922 6.0873,-1.24231 0,1.11808 -1.36653,5.21768 1.73922,-3.23 2.36038,-0.12423 3.35423,0.12423 2.8573,2.23615 -1.36654,3.10577 0.49693,-4.96922 0.86961,-3.35423 3.85115,-2.11192 2.8573,0.49692 3.22999,1.98769"/>
      </g>
    </g>
    <g>
      <title>S</title>
      <path d="m 311.24409,357.02945 0,5.7184 1.36153,5.71839 3.53996,2.99535 8.16913,1.63383 7.07992,-0.2723 7.07992,1.08921 2.17843,4.35688 -1.63382,5.71839 c -1.34774,0.66437 -2.70968,1.29994 -4.08457,1.90613 -2.23674,0.98619 -4.50777,1.8946 -6.80761,2.72305 l -2.17844,-1.08922 -2.17844,-4.90148 0.54461,-7.07992 0,-7.62453 2.45074,-7.07991 4.90148,-7.35223 6.80762,0 4.35687,2.45074 0,1.36153"/>
    </g>
    <g>
      <title>c</title>
      <path d="m 356.78638,382.69026 -4.24185,0.23566 -0.94263,-3.06356 0.23566,-3.29921 2.82789,-3.53487 4.47751,0.47131"/>
    </g>
    <g>
      <path d="m 363.89775,375.20935 8.79079,-0.81775 5.11092,-5.31536 5.72423,-4.90649 3.27099,-6.1331 -1.02218,-4.08874 -1.22662,-3.06656 -4.70205,-2.04437 -2.86212,2.86212 -3.27099,10.83516 c -0.73544,7.5536 -1.34886,15.11908 -1.83993,22.6925 -0.32678,5.03965 -0.59938,10.08282 -0.81775,15.12833 l -6.74642,17.17271 -4.70205,3.27099 -3.67986,-0.61331 -1.6355,-5.5198 1.02219,-10.01741 3.47542,-6.74642 6.95086,-7.1553 6.33755,-3.27099 5.31535,-3.67986"/>
    </g>
    <g>
      <path d="m 384.95475,377.04928 7.35973,-4.49761 1.43106,0 -1.02218,9.81297 5.51979,-6.33754"/>
      <path d="m 397.83428,358.85439 0,2.04437"/>
    </g>
    <g>
      <title>r</title>
      <path d="m 402.9452,373.98273 4.08874,-0.61331 2.65768,0.20443 -1.63549,4.90649 0.61331,3.67987 3.06655,-3.47543 3.47543,-0.81775 1.02218,1.63549 1.22662,3.67987 -1.43105,-4.29318 0.20443,-3.06655 c 1.01888,-0.8897 2.04107,-1.77561 3.06656,-2.65768 0.47631,-0.4097 0.95333,-0.81857 1.43106,-1.22662 l 2.2488,1.43106 0.61331,-0.20444"/>
    </g>
    <g>
      <title>e</title>
      <path d="m 429.522,372.75611 5.11093,0 4.08874,-3.06656 -1.02219,6.74642 0.61331,2.86212 1.02219,-7.97304 7.7686,-0.40888 2.45324,-0.81774"/>
    </g>
    <g>
      <title>n</title>
      <path d="m 455.07662,369.68955 c 1.54744,-0.6003 3.1161,-1.14591 4.70205,-1.63549 0.94814,-0.29269 1.90247,-0.56535 2.86212,-0.81775 l 1.83993,0 -1.6355,4.70205 2.45325,-2.65768 4.08874,-1.83993 2.04437,0.40887 2.04437,3.06655 4.49761,0.40888 4.29317,-1.6355"/>
    </g>
    <g>
      <title>b</title>
      <path d="m 486.35547,367.84962 11.0396,-6.33755 4.70205,-7.15529 3.06655,-6.95085 -0.61331,-4.08874 -4.08874,-1.22662 -5.11092,4.90648 c -0.42951,2.72268 -0.8384,5.44861 -1.22662,8.17748 -0.35836,2.51897 -0.6991,5.04044 -1.02219,7.56417 l -1.22662,5.72423 3.67986,3.27099 4.90649,-2.2488 0.40887,-3.47543 -1.63549,-5.11093 2.45324,4.70205 4.49762,-0.40887"/>
    </g>
    <g>
      <title>e</title>
      <path d="m 511.09234,363.96532 5.11092,-2.86212 -1.83993,5.72423 -0.40887,3.06656 2.65768,-5.92867 3.47543,-1.6355 3.06655,0"/>
    </g>
    <g>
      <title>c</title>
      <path d="m 527.65173,360.69433 7.35973,-1.02219 -0.81774,3.27099 2.45324,2.24881 2.45324,0.20444 -2.65768,-1.22663 -1.22662,-3.27099 c 0.47203,-0.5495 0.94908,-1.0947 1.43106,-1.63549 0.73812,-0.82818 1.48781,-1.64603 2.2488,-2.45325 l 8.17748,-1.22662 4.29318,1.6355"/>
    </g>
    <g>
      <title>k</title>
      <path d="m 555.65959,356.60559 11.65291,-0.20444 6.74642,-1.63549 6.54198,-3.06656 4.90649,-6.95085 1.22662,-4.70205 -0.20444,-5.31536 -2.65768,-3.67987 -9.4041,-2.24881 -6.33754,5.5198 -4.70205,10.63072 -3.8843,11.65291 -0.40888,6.74642 4.08874,2.45324 1.6355,-1.43106"/>
      <path d="m 565.47257,355.99228 2.04437,-1.83994 2.86211,0.20444 3.47543,5.72424 2.04437,1.63549 0,3.27099 4.08874,0.81775 8.79079,-0.81775"/>
    </g>
    <g>
      <title>G</title>
      <path d="m 133.6288,389.4694 6.86743,-5.57979 c 2.21758,-2.10014 4.45923,-4.17486 6.72436,-6.22361 1.51564,-1.37086 3.0418,-2.73009 4.57829,-4.07754 l 1.85993,-3.21911 0.21461,-2.50375 -2.07454,-2.003 -4.86443,1.57379 -4.29215,4.14907 -1.64532,3.57679 0.14307,5.0075 3.43372,2.21761 3.64832,1.07304 3.50526,2.50375 2.14607,3.64832 0.64382,4.006 -1.85993,5.22212 -4.43522,2.2176 -5.79439,1.57379 -7.58279,-0.35768 -3.7914,-1.28764 -1.85993,-2.36068 -2.003,-3.29065 0.21461,-3.71986 2.78989,-6.50975 c 0.70825,-0.32606 1.42385,-0.63615 2.14608,-0.92997 0.61532,-0.25033 1.23545,-0.48883 1.85993,-0.71535 l 2.36068,1.14457 1.64532,2.14607 0.0715,2.003 0.42922,1.43072 1.14457,0.85843 3.86293,-1.43072 c 1.90026,-1.62348 3.76093,-3.29331 5.57979,-5.0075 1.65669,-1.56136 3.2787,-3.15952 4.86443,-4.7929 l 4.93597,-6.50975 3.29064,-5.22211 -1.85993,4.22061 0.0715,1.57379 2.003,1.07303 5.22211,0.71536 -3.29064,1.78839 -2.43222,4.43522 -0.0715,1.85993 2.78989,2.07454 2.93297,1.85993 1.35918,1.85993 0.71535,2.36068 -0.92996,2.28914 -4.64983,2.07454 -4.79289,3.50525 c 2.00655,-1.13835 4.00956,-2.28293 6.009,-3.43372 1.07407,-0.61819 2.14711,-1.23816 3.21911,-1.85993 l 2.64682,-1.0015 3.64833,-0.0715"/>
    </g>
    <g>
      <title>i</title>
      <path d="m 187.06601,387.75254 -4.72136,4.36368 -0.35768,2.71836 1.0015,1.43072 5.72286,-2.003"/>
      <path d="m 186.6368,377.16525 -0.7869,1.35918"/>
    </g>
    <g>
      <title>e</title>
      <path d="m 193.07502,392.04469 3.36218,0.21461 5.29364,-4.00601 -3.07604,4.22061 -0.14307,4.93597 2.64683,-4.64982 6.50975,0.57228 5.22211,-2.07454"/>
    </g>
    <g>
      <title>r</title>
      <path d="m 216.89642,389.18326 3.21911,-2.14608 4.22061,0.42922 c 0.085,0.66614 0.15652,1.33398 0.21461,2.003 0.0641,0.73802 0.11179,1.47747 0.14307,2.21761 l -3.36218,4.72136 3.0045,-3.0045 1.71686,0.50075 2.28914,1.14457 2.07454,2.003 -0.57228,-4.43522 0.42921,-4.07753 2.50375,-2.21761 4.006,0.0715"/>
    </g>
    <g>
      <title>d</title>
      <path d="m 241.6478,386.67951 1.85993,-0.14308 2.2176,-0.42921 4.50676,-3.43372 -3.93447,2.93297 -1.43071,2.43222 1.07303,2.78989 3.43372,0.21461 4.79289,-3.29065 1.85993,-5.36518 -0.2146,-6.7959 -3.07604,-6.08054 -7.58279,-6.50975 -7.22511,-4.7929 -8.22662,-3.79139 -8.22661,-0.0715 -7.51125,1.43072 -5.65133,5.07904 -2.64682,5.29364 -0.14307,4.22061 4.07754,4.14908 3.14757,2.28914"/>
    </g>
    <g>
      <title>t</title>
      <path d="m 261.24859,380.52743 c 1.60001,-1.49877 3.15106,-3.04981 4.64983,-4.64982 1.26993,-1.35571 2.50212,-2.74631 3.71986,-4.14908 1.35305,-1.55864 2.6885,-3.13256 4.006,-4.72136 l 4.006,-8.44122 c -0.37742,2.59973 -0.75894,5.19887 -1.14457,7.7974 -0.47078,3.17234 -0.94769,6.34376 -1.43071,9.51426 -1.10832,1.55886 -2.22909,3.10887 -3.36218,4.64982 -1.34199,1.82505 -2.70125,3.6374 -4.07754,5.43672 l 3.21911,-2.57529 5.79439,0.14307 4.36368,1.50225 3.86294,0.71536 3.86293,0.28614"/>
      <path d="m 281.99396,374.16075 -6.08053,0.85843 c -1.70882,-0.0447 -3.41311,-0.26077 -5.07904,-0.64382 -1.31698,-0.30282 -2.60999,-0.70987 -3.86293,-1.21611"/>
    </g>
    <g>
      <title>o</title>
      <path d="m 609.80942,363.29472 3.68186,-3.68186 -0.27614,1.84093 0.64433,1.56479 1.10456,0.82842 2.85345,0.0921 3.49777,-2.85345 0.36819,-3.68186 -2.02503,-1.01252 1.28866,2.66936 1.84093,1.84093 c 1.13516,0.18462 2.2704,0.36871 3.40573,0.55228 0.95109,0.15378 1.90224,0.30719 2.85345,0.46023"/>
    </g>
    <g>
      <title>c</title>
      <path d="m 659.51464,355.37871 -5.24667,0.092 -3.12958,-0.73637 -1.74889,-1.19661 -3.49778,0.55228 -2.5773,3.12959 -1.65684,3.58982 0.73637,1.84094 2.66935,1.56479 3.95801,0.46023"/>
    </g>
    <g>
      <title>G</title>
      <path d="m 691.08666,352.06503 -0.82843,-1.47275 -2.30116,-0.36819 -4.05006,2.11708 -1.56479,3.58982 1.28865,4.05005 3.40573,2.66936 6.07508,2.02502 5.89099,0.36819 5.33871,-0.092 5.7069,-0.82843 5.70689,-1.74888 4.23415,-2.7614 2.85345,-3.31369 -0.36819,-2.85344 -6.62736,-5.52281 -7.45578,-4.78642 -2.48527,-2.9455 -1.65684,-4.05005 2.20912,-2.7614 3.49778,-1.19661 4.87847,0 2.66936,1.10456 -0.18409,2.11707 -3.68187,5.24667 c -2.73825,1.75237 -5.4391,3.56317 -8.10011,5.43075 -2.30079,1.61477 -4.57179,3.27199 -6.81146,4.97052 l 2.85345,0.36819 2.30117,1.65684 0.18409,1.93298 10.21718,-10.95356 7.73193,-5.61485 6.99555,-6.9035 6.16713,-4.32619 -7.45579,7.63987 -2.02502,2.57731 c 1.31531,0.26648 2.63486,0.51198 3.958,0.73637 1.4076,0.23871 2.81926,0.45353 4.23415,0.64433 l -4.51029,3.77392 -1.01251,2.7614 0.82842,1.56479 c 0.49576,0.48605 0.9867,0.97699 1.47275,1.47275 1.00298,1.02302 1.98508,2.0665 2.94549,3.12959 l -0.36818,2.7614 -1.10456,3.58982 -4.41825,2.7614 -1.28865,-0.46023"/>
    </g>
    <g>
      <title>i</title>
      <path d="m 739.59527,361.63788 5.98303,-6.62736 -1.1966,2.85345 -0.55228,2.66935 2.30116,1.10456 6.44327,0.0921"/>
      <path d="m 755.79549,337.06141 -1.3807,2.48526"/>
    </g>
    <g>
      <title>e</title>
      <path d="m 756.71596,359.7049 3.31368,-1.3807 3.958,-4.51029 -2.20912,10.95356 2.30117,-6.16713 5.15462,0.1841 3.31368,-0.82842"/>
    </g>
    <g>
      <title>r</title>
      <path d="m 776.87418,357.49578 c 0.95628,-0.35475 1.90755,-0.72299 2.85345,-1.10456 1.23677,-0.49891 2.46434,-1.02063 3.68187,-1.56479 l 3.86596,-0.27614 1.74889,1.93298 -0.92047,1.84093 -3.22163,2.48526 3.12958,-0.82842 2.30117,-0.092 0.55228,0.64432 0.36819,3.58982 0.18409,-4.23414 0.82842,-3.03754 3.03754,-1.28866 5.43076,0"/>
    </g>
    <g>
      <title>d</title>
      <path d="m 805.04048,355.19461 5.5228,-0.27614 3.40573,-3.86596 -3.12959,4.78643 -0.64433,2.9455 2.48526,2.30116 4.51029,-0.27614 2.7614,-5.15461 -0.18409,-6.99555 -2.48526,-9.75695 -4.87848,-13.34677 -5.43075,-4.97053 -5.15462,-1.56479 -9.94104,1.84093 -3.77392,7.17965 -2.39321,5.89099 1.56479,5.24666 5.15462,5.33871 9.48081,0.92046 10.44327,-2.85344 14.22524,-12.6104"/>
    </g>
    <g>
      <path d="m 824.09414,348.01497 c 2.66935,0.009 5.33872,0.009 8.00807,0 4.69562,-0.0161 9.39245,-0.0604 14.08314,-0.27614 3.07278,-0.14132 6.14217,-0.35618 9.20467,-0.64433 l 4.60234,0.36819"/>
      <path d="m 844.62056,328.77721 c -0.92078,2.74117 -1.87201,5.47212 -2.85345,8.19216 -1.12991,3.13153 -2.29988,6.24865 -3.40573,9.38876 -1.07331,3.04771 -2.08609,6.11674 -3.03754,9.20467 l -4.32619,4.23415 5.43075,-1.19661 c 2.3015,-0.0835 4.60268,-0.17557 6.9035,-0.27614 1.96395,-0.0858 3.92762,-0.17789 5.89099,-0.27614 l 4.69438,-2.02503"/>
    </g>
    <g>
      <title>K</title>
      <path d="m 876.86148,348.08369 3.05314,-5.80096 3.35845,-9.61739 1.0686,10.9913 5.03768,0.61063 4.88502,-2.74782 5.03768,-11.29662 4.88502,-3.81642 9.15942,0.61063 c 2.72339,-0.10873 5.4748,0.90199 7.48019,2.74782 2.21724,2.04083 3.47867,5.07972 3.35845,8.09082 l -1.22125,7.02222 c -2.96212,3.24133 -6.01692,6.39796 -9.15942,9.46473 -3.50616,3.42168 -7.12149,6.73149 -10.83864,9.9227 l -8.8541,3.96908 -4.73237,-5.03768 3.05314,-13.1285 4.27439,-8.54878 8.85411,-6.25894 7.63284,-1.67923 10.53333,0.61063 10.22802,-3.20579 3.96908,-6.10628 -0.30531,-5.19034 -5.19034,-2.28985 -9.9227,6.41159 -9.77005,12.36521 -1.37391,10.68599 3.66377,9.15941 6.41159,9.15942 9.61739,5.64831 7.93816,6.10628 10.07536,1.06859 11.29661,-1.37391"/>
    </g>
    <g>
      <title>r</title>
      <path d="m 935.48175,363.34939 1.0686,-5.34299 5.6483,-3.66377 3.66377,-0.61063 2.74783,1.37391 -1.0686,5.95362 -0.76329,1.98454 2.1372,-2.44251 1.37391,0.15266 2.59517,1.0686 0.15266,4.42705 c 0.30283,-1.56914 0.55742,-3.14759 0.76328,-4.73237 0.19766,-1.52162 0.35041,-3.04907 0.45797,-4.5797 l 3.66377,-3.51111 5.95362,0.61062"/>
    </g>
    <g>
      <title>a</title>
      <path d="m 967.99768,354.8006 c 1.37353,-0.0394 2.7482,-0.0394 4.12173,0 1.01864,0.0292 2.03666,0.0801 3.05314,0.15266 l 7.17488,-3.81643 -7.17488,4.88502 -1.83188,3.2058 1.67923,1.83188 3.05314,0.61063 3.20579,-0.45797 2.44251,-3.35845 -0.30531,-5.49565 2.1372,1.52657 1.67922,0.61063 0.45797,0 1.0686,3.66376 2.28986,1.67923 3.51111,-0.15266"/>
    </g>
    <g>
      <title>m</title>
      <path d="m 999.44501,357.39577 3.96909,-3.05314 2.9005,-1.52657 3.5111,0 1.8319,-0.15266 0.7632,0.91594 -0.1526,1.67923 -2.1372,5.03768 2.4425,-3.96908 4.4271,-1.83188 4.5797,-1.37392 1.9845,0.91594 0.458,3.2058 -2.4425,3.35845 3.8164,-4.73236 3.0531,-1.98454 3.5111,-0.30532 1.0686,1.22126 -0.1526,3.05314 -0.458,3.20579 c 0.6115,-0.14919 1.2221,-0.30185 1.8319,-0.45797 1.3274,-0.33985 2.6505,-0.69608 3.9691,-1.0686"/>
    </g>
    <g>
      <path d="m 1042.4943,358.46437 4.427,-0.91595 6.1063,-3.20579 -5.343,10.53333 3.6638,-5.95362 4.427,-2.1372 7.1749,0 3.2058,-1.52657"/>
    </g>
    <g>
      <title>r</title>
      <path d="m 1070.5831,353.57934 3.5112,-0.45797 5.9536,0.15266 -2.1372,1.83188 -1.8319,4.42705 c 0.8477,-0.48978 1.7136,-0.94817 2.5952,-1.37391 0.5537,-0.26739 1.1137,-0.52191 1.6792,-0.76328 l 2.5952,0 0.1526,1.22125 -1.6792,4.2744 2.2898,-4.73237 1.2213,-3.35845 1.9845,-2.28985 3.0532,-0.76329 2.9005,0.30531 2.4425,1.83189 2.7478,0 2.4425,-0.76329 1.9845,-1.22125 0.916,-2.44251 0.9159,-3.2058"/>
    </g>
    <g>
      <title>m</title>
      <path d="m 403.19956,171.7398 1.46725,-3.22794 2.93449,-2.64105 3.81485,-0.29345 7.04278,-2.34759 2.3476,-2.9345 c 0.0492,-2.15381 0.14705,-4.3065 0.29345,-6.45589 0.14685,-2.15602 0.34255,-4.30872 0.5869,-6.45588 l -2.9345,-5.86899 -5.57554,-0.5869 -2.05414,4.69519 0.29345,6.16244 c 0.84552,2.45776 1.72599,4.9035 2.64104,7.33623 0.85057,2.26128 1.73102,4.51133 2.64105,6.74934 l -0.29345,4.69519 -1.7607,3.22795 -2.05414,0 1.17379,-4.40174 2.3476,-6.16244 4.98864,-6.45589 8.80348,-1.1738 2.64105,3.22794 -0.88035,6.45589 -2.05415,6.74934 1.1738,-10.85763 2.64105,-2.3476 4.69519,-2.05414 4.10829,-1.46725 1.46725,2.64105 0.5869,4.10829 -0.5869,6.45589 2.93449,0 3.5214,-2.05415"/>
    </g>
    <g>
      <title>m</title>
      <path d="m 781.45592,154.71973 2.64105,-2.05414 8.80348,-0.88035 4.40174,-4.10829 4.10829,-5.2821 1.1738,-4.69519 0.29345,-4.40174 -0.5869,-2.34759 -3.81484,-4.1083 -4.40174,-0.29345 -1.1738,4.98864 c 0.0897,3.4228 0.0897,6.84794 0,10.27074 -0.059,2.25124 -0.15686,4.50146 -0.29345,6.74933 l 2.3476,7.62969 -0.88035,4.69519 1.1738,-7.62968 c 1.46725,-1.95633 2.93449,-3.91266 4.40174,-5.86899 1.1738,-1.56507 2.34759,-3.13013 3.52139,-4.6952 l 4.10829,-3.81484 4.69519,0 2.9345,2.9345 -0.88035,5.57554 -3.22794,10.27073 0.88035,-10.27073 2.05414,-3.5214 3.5214,-4.98864 4.40174,-1.7607 4.40174,2.3476 2.64104,4.98864 -2.34759,6.16244 -0.88035,4.98864 2.3476,0.5869 2.93449,-1.46725"/>
    </g>
    <g>
      <title>a</title>
      <path d="m 833.10303,151.49179 8.80348,-4.40174 6.16244,-1.46725 -9.09693,3.81484 -1.1738,3.22795 2.05414,1.46724 4.1083,-1.76069 4.40174,-1.46725 0,-5.86899 -0.88035,6.74934 2.3476,2.05414 7.92313,-0.88034"/>
    </g>
    <g>
      <title>r</title>
      <path d="m 858.92658,150.61144 4.98864,-1.1738 0.29345,-0.29345 2.93449,-0.29345 -2.93449,5.28209 1.7607,-0.88034 3.22794,0 1.7607,2.05414 0,-2.64104 1.76069,-2.9345 3.22795,-0.5869 0.88035,0.88035 2.34759,1.1738"/>
    </g>
    <g>
      <title>e</title>
      <path d="m 882.80994,150.12655 4.63644,-1.77909 2.15648,-2.58778 -1.61736,4.79817 -0.9165,5.17556 1.3478,-4.74426 0.32347,-2.10257 2.91125,-0.0539 3.5582,0.16174 2.21039,-0.21565"/>
    </g>
    <g>
      <title>n</title>
      <path d="m 900.81657,147.80834 2.58778,-0.64695 2.91125,-0.4313 1.45563,0.32348 -0.4313,1.29389 -1.29389,2.21039 -1.23998,2.53387 2.53387,-3.23473 2.6956,-2.15648 3.93558,-2.21039 2.64169,-0.53912 1.61737,2.15648 -0.91651,3.23472 -0.75477,1.61736 3.45037,0.70086 4.42079,-1.83301 3.61211,-0.64694 3.07299,-1.40172 0.64694,-2.64169"/>
    </g>
    <g>
      <title>S</title>
      <path d="m 890.45033,191.14925 -2.6949,-5.81531 3.12041,-7.51734 0.85102,-3.82959 -0.99286,-1.13469 -2.6949,5.8153 1.84388,3.97143 3.68775,1.13469 2.26939,0.42551 8.22652,-0.42551 4.53877,1.13469 3.82959,4.11327 0.85102,2.97857 -1.13469,4.11326 -1.5602,2.97857 -2.83674,1.13469 -3.97142,-1.84388 -3.97143,-2.83673 -0.14183,-4.39693 1.41836,-4.68061 3.12041,-7.37551 4.53877,-6.52448 4.39694,-4.2551 3.26224,0.85102 1.70204,2.41122 0.42551,3.26224 0.14183,-7.65917"/>
    </g>
    <g>
      <title>o</title>
      <path d="m 919.385,191.43292 -0.99286,3.26224 0.99286,5.10612 4.39693,-1.27653 1.70204,-1.84388 1.84388,-2.83673 -0.70919,-1.84387 -2.55305,-0.28368 5.67346,0.99286"/>
    </g>
    <g>
      <title>ff</title>
      <path d="m 932.29213,210.43903 3.26224,-3.82959 2.55306,-5.53163 3.26224,-9.64489 0.14184,-2.6949 -4.68061,2.97857 -0.56734,1.84388 3.97142,0.14183 3.12041,-4.11326 0.99285,-4.82244 2.83674,-6.09898 3.26224,-4.68061 3.68775,-1.84387 3.26224,1.84387 0.56735,12.7653 -1.41837,6.94999 -2.83673,5.10612 -0.70918,0.99286 0,-3.40408 1.41836,-8.08469 3.54592,-7.3755 c 2.13722,-2.72496 4.31233,-5.4202 6.52448,-8.08469 1.26448,-1.52304 2.54106,-3.03602 3.82959,-4.53877 l 1.41837,1.98571 -7.80102,11.06326 -5.38979,6.66632 -14.18366,4.11326 c 4.17237,-1.33485 8.33312,-2.706 12.48162,-4.11326 3.41248,-1.15759 6.81668,-2.3396 10.21224,-3.54592"/>
    </g>
    <g>
      <title>r</title>
      <path d="m 963.21251,191.43292 2.26939,-0.99286 2.97857,0.70919 0.28367,3.1204 -2.26938,4.39694 3.40408,-3.26225 2.41122,2.55306 -1.98571,3.97143 c 0.95156,-2.12301 1.99293,-4.20576 3.1204,-6.24081 0.50306,-0.908 1.02325,-1.80652 1.5602,-2.6949 l 3.12041,-0.85102 4.11326,-0.28367"/>
    </g>
    <g>
      <title>r</title>
      <path d="m 985.48086,190.72374 5.10612,-1.84388 -1.5602,5.53163 -0.56735,3.40408 3.12041,-5.8153 3.68775,-1.41837"/>
    </g>
    <g>
      <title>n</title>
      <path d="m 1000.09,189.73088 3.9715,-1.13469 3.6877,0 1.8439,0.70918 0,2.41122 -1.8439,2.26939 -1.702,1.41836 4.1132,-4.53877 2.4113,-3.1204 4.2551,0.42551 0.2836,3.68775 -2.2694,6.24081 -1.1346,1.84388 4.9642,-7.65918 4.8225,-0.85102"/>
    </g>
    <g>
      <title>s</title>
      <path d="m 1027.3227,187.60333 2.553,-0.14184 2.2694,0.56735 0.2837,5.10612 -0.9929,6.09897 -1.2765,3.40408 -0.851,0.85102 -1.2765,-1.98571 2.2693,-9.36122 c 2.5875,-5.11649 5.0006,-10.32119 7.2337,-15.60203 1.8776,-4.44014 3.6278,-8.93409 5.248,-13.47448 l 3.5459,-1.70204 0.9928,2.41123 -0.2836,6.66632 -2.1276,5.10612 -1.2765,4.11326 0.851,2.97857 1.8439,2.26938 0.851,2.6949 -0.9929,3.26224 -6.8081,2.97857 5.8153,-2.12755"/>
    </g>
    <g>
      <path d="m 1056.6828,187.887 -2.9785,0.42551 -1.2765,2.26939 0.1418,2.12755 1.5602,1.41836 2.8367,-0.42551 1.8439,-1.27653 0.7092,-2.26938 -1.7021,-2.41122 1.4184,1.5602 1.4184,1.5602 4.6806,0.56735"/>
      <path d="m 1069.7318,166.46967 -3.8296,4.39694 -5.5316,7.80101"/>
    </g>
    <g>
      <title>n</title>
      <path d="m 1069.1645,188.59619 3.2622,-0.56735 1.7021,0.28367 0,2.55306 -2.4113,5.38979 2.6949,-2.83673 3.6878,-0.28367 0.4255,0.99285 -0.7092,3.97143 -2.6949,4.96428 -4.9643,5.95714 -4.8224,3.82959 -5.6735,1.41837 -2.4112,-1.1347"/>
    </g>
    <g>
      <title>o</title>
      <path d="m 1099.9235,187.58945 -2.5252,1.14237 -2.5252,2.04425 -0.8418,2.76574 -0.3607,3.00624 0.3006,1.50312 1.5632,0.60125 3.4271,-1.2025 1.6234,-1.86387 1.8038,-3.06636 -0.3608,-3.00624 -1.5031,-1.86387 c 0.5178,0.79743 1.0593,1.57951 1.6234,2.34486 0.3901,0.52923 0.791,1.05046 1.2025,1.56325"/>
    </g>
    <g>
      <title>c</title>
      <path d="m 1109.1226,198.95304 -1.1423,-1.20249 -1.1424,-3.00624 0.7816,-2.10437 2.886,-3.12649 3.6075,-1.56325 0.9019,1.32275 2.405,2.40499 2.6455,1.38287"/>
    </g>
    <g>
      <title>H</title>
      <path d="m 1156.9092,178.86678 5.782,-4.25147 5.612,-5.10176 1.1904,-7.48258 -0.8503,-4.76165 -1.3605,-3.91135 -2.5509,-0.85029 -5.4419,1.87064 -4.0814,5.10177 -5.2718,9.69334 -6.4622,14.62505 -5.2718,5.78199 -3.2311,6.29217 4.4215,-4.25146 3.7413,0 1.0203,1.70058 -0.17,3.74129 -2.721,5.10176 c 1.3318,-2.25116 2.6358,-4.51884 3.9114,-6.80234 1.0392,-1.86028 2.0596,-3.73105 3.061,-5.61194 l 3.9114,-1.70059 4.9317,2.38083 c -0.095,0.96571 -0.2084,1.92961 -0.3401,2.89099 -0.2658,1.93947 -0.6062,3.86871 -1.0204,5.782 l -4.0814,11.56399 c -1.0569,1.93849 -2.134,3.86596 -3.2311,5.78199 -1.4396,2.51421 -2.9136,5.00872 -4.4215,7.48259 l -3.4012,2.89099 -4.4215,-1.36047 3.2311,-7.99275 c 1.1702,-2.16514 2.3607,-4.31934 3.5712,-6.46223 1.0617,-1.87943 2.1388,-3.75016 3.2311,-5.61194 l 5.612,-7.8227 9.0131,-4.42153"/>
    </g>
    <g>
      <title>a</title>
      <path d="m 1170.5139,187.36971 -2.5509,3.57123 -0.3401,2.72094 1.1904,1.53053 3.4012,-0.34012 4.0814,-2.38082 1.1904,-2.0407 1.0204,-3.57124 -2.0407,-3.06105 -2.0407,-0.51018 3.061,1.02035 1.7006,4.59159 -2.0407,3.74129 -0.5102,1.70059 3.2311,0.85029"/>
    </g>
    <g>
      <title>s</title>
      <path d="m 1184.1186,191.28106 3.4012,-2.891 2.7209,-3.23111 1.7006,1.53052 0,2.891 -3.9113,7.31253 3.4011,-6.80235 5.2719,-3.23112 3.9113,0 0.3401,2.04071 -1.5305,4.25146 -0.6802,1.02036 1.5305,1.70058 3.4012,-1.36047"/>
    </g>
    <g>
      <title>s</title>
      <path d="m 1207.9268,191.96129 4.4216,-0.51017 0.6802,2.72094 -0.6802,6.9724 -1.8707,6.12212 -1.7006,2.38082 0.8503,-12.58435 2.891,-9.18316 7.1425,-14.28493 6.1221,-14.79511 4.5916,-4.76164 1.1904,3.23111 -2.3808,7.14247 -1.8707,3.74129 c -0.4741,1.82384 -0.9844,3.63828 -1.5305,5.44188 -0.3273,1.08103 -0.6675,2.15817 -1.0204,3.23111 l 3.9114,1.53053 2.5509,3.40117 -0.8503,3.23112 -3.0611,4.59158 -3.4012,2.21077 -4.4215,-0.8503"/>
    </g>
    <g>
      <title>J</title>
      <path d="m 1055.1844,308.11395 -1.7727,-5.02258 -0.7386,-2.95445 1.0341,-5.61347 1.9204,-3.8408 2.0681,-1.03406 3.1022,-0.44316 7.0906,-0.29545 -3.5453,2.06812 -2.8067,6.35208 -1.9204,10.48833 -3.1022,7.23842 -2.3636,7.82931 c -2.0589,2.1754 -4.127,4.34203 -6.2043,6.4998 -1.5215,1.58047 -3.048,3.15619 -4.5794,4.72713 l -3.5454,2.80674 -4.8748,0.88634 -2.2159,-1.32951 -0.2954,-3.39763 0.1477,-3.39762 2.0681,-4.13624 3.1022,-2.51129 1.4772,0"/>
    </g>
    <g>
      <title>a</title>
      <path d="m 1066.2636,309.44346 4.284,-1.32951 5.7612,-2.80673 c 1.2875,-0.36977 2.568,-0.76379 3.8407,-1.18179 0.2959,-0.0972 0.5914,-0.19567 0.8864,-0.29544 l -4.8749,2.21584 -4.4317,3.2499 0,2.21585 2.2159,1.18178 3.6931,-2.21584 5.4657,-3.98852 -1.3295,-3.98852 c -0.059,1.72277 -0.059,3.44753 0,5.1703 0.032,0.93638 0.081,1.87218 0.1477,2.80674 l 2.2159,1.3295"/>
    </g>
    <g>
      <title>c</title>
      <path d="m 1089.8993,309.7389 11.0792,-8.86337 -5.7612,5.02258 -1.1818,1.62495 0.4432,3.2499 1.034,1.62495 2.9545,1.62496"/>
    </g>
    <g>
      <title>o</title>
      <path d="m 1102.1603,304.86405 2.9544,2.06812 6.0566,-2.21584 3.5454,-2.51129 -2.8067,2.95445 -1.0341,3.10218 1.4772,3.54535 5.9089,-2.36356 2.9545,-2.95446 0.2954,-2.51129 -2.2158,-2.65901 1.4772,0.44317 1.7727,2.51129 1.9204,0.73861"/>
    </g>
    <g>
      <title>b</title>
      <path d="m 1128.3072,303.82999 c 2.584,-0.9222 5.1456,-1.90741 7.6816,-2.95446 2.5882,-1.06859 5.1498,-2.2016 7.6816,-3.39762 l 4.1362,-3.8408 5.7612,-4.57941 0.8863,-3.10218 -2.0681,-3.69307 -2.659,-2.51129 -4.284,3.69307 -6.7952,8.27248 -4.4317,9.89744 -1.3295,4.72713 -0.1477,4.87485 2.3635,0.14772 3.8408,-0.59089 1.7727,-2.21584 2.2159,-3.98852 -1.625,-3.84079 1.625,3.39762 2.9544,1.77268 3.6931,0.29544"/>
    </g>
    <g>
      <title>S</title>
      <path d="m 1164.0834,286.56382 c -0.049,2.20793 -0.049,4.41694 0,6.62487 0.036,1.64133 0.099,3.28206 0.1893,4.92132 l 1.8928,1.13569 4.9213,-1.51425 4.7321,-0.56785 1.8928,3.02851 1.5143,5.2999 -2.65,3.97491 -2.6499,1.89282 -3.2178,-0.94641 -0.3786,-4.73204 0.7571,-3.21779 2.4607,-3.2178 3.4071,-7.19271 4.1642,-5.29989 6.4356,-3.21779 3.407,0.75713 2.65,5.86774 0.7571,3.78563"/>
    </g>
    <g>
      <title>i</title>
      <path d="m 1185.0937,307.57411 3.5963,-1.32498 3.2178,-3.21779 -3.0285,2.64995 -0.3785,3.02851 1.8928,1.51425"/>
      <path d="m 1200.047,289.21377 3.7856,-2.83923"/>
    </g>
    <g>
      <path d="m 1201.1704,301.71949 -2.9663,3.68777 -1.2025,2.24472 -0.08,1.52321 0.3207,0.88186 c 1.4718,-0.19945 2.9417,-0.41325 4.4093,-0.64135 0.9898,-0.15383 1.9785,-0.31418 2.9662,-0.48101 l 2.4853,-2.48524 4.4894,-6.01266 -4.4894,5.69199 -0.6414,3.36709 1.6034,2.00422"/>
      <path d="m 1216.0016,278.87136 -6.654,9.86077"/>
    </g>
    <g>
      <title>r</title>
      <path d="m 1214.7991,307.73215 c 2.0511,-1.08536 4.0825,-2.20797 6.0928,-3.36709 1.1832,-0.6822 2.3591,-1.37705 3.5274,-2.08439 l 1.6836,-0.24051 1.5232,1.60338 -0.8017,2.24473 -4.6498,4.56963 3.2068,-1.60338 2.7257,0.32067 c 0.5847,0.46833 0.9693,1.17849 1.0422,1.92406 0.087,0.89295 -0.283,1.8186 -0.962,2.40506 1.0155,-2.03095 2.0309,-4.06189 3.0464,-6.09283 0.8017,-1.60338 1.6034,-3.20676 2.4051,-4.81014 l 2.2447,-0.2405 0.962,0.88186"/>
    </g>
    <g>
      <title>s</title>
      <path d="m 1242.4573,303.4832 c 1.5757,0.0773 3.1526,0.13078 4.73,0.16034 1.9505,0.0366 3.9018,0.0366 5.8523,0 l 1.9241,1.92405 0,2.56541 -1.1224,3.76794 -3.8481,3.04641 0.4009,-7.13503 2.405,-7.29537 5.2912,-8.09705 c 1.2676,-1.27126 2.5504,-2.52736 3.8481,-3.76794 1.2163,-1.16281 2.4456,-2.312 3.6877,-3.44726 l 0.8017,6.01266 -1.2827,3.44727 1.9241,2.96624 1.5232,1.68355 -0.1603,3.76794 -2.8861,4.16878 -2.0844,1.0422 -1.0422,-1.36288 1.8439,-2.64557 5.692,-3.8481"/>
    </g>
    <g>
      <title>e</title>
      <path d="m 1272.2802,302.12033 3.2869,-0.16034 -4.249,8.89875 4.73,-6.73419 3.6076,-2.48523 1.1224,1.20253 3.0464,0.64135"/>
    </g>
    <g>
      <title>n</title>
    </g>
    <g>
      <title>n</title>
      <path d="m 1288.9961,304.65249 2.0576,-0.56117 4.3022,-3.7411 4.1152,-0.18706 2.8059,0.18706 c -0.7089,-0.64794 -1.6011,-1.09319 -2.545,-1.27016 -0.944,-0.17698 -1.9368,-0.0851 -2.8323,0.26202 -0.8955,0.34714 -1.6908,0.9485 -2.2688,1.71549 -0.5781,0.767 -0.937,1.69724 -1.0239,2.65371 -0.087,0.95646 0.098,1.93617 0.5286,2.79483 0.4302,0.85865 1.104,1.59356 1.9222,2.09649 0.8182,0.50293 1.7782,0.77231 2.7387,0.76845 0.9604,-0.004 1.9182,-0.28093 2.7323,-0.79041 0.9419,-0.58946 1.6857,-1.48976 2.0868,-2.526 0.4011,-1.03625 0.4574,-2.20268 0.1578,-3.27271 l 5.4246,-3.36699 4.4893,-0.74822 3.367,3.17994 2.4317,2.61877 4.3023,-4.11521 4.1152,-2.05761"/>
    </g>
    <g>
      <title>A</title>
      <path d="m 465.69347,407.86086 -0.60796,-2.43182 0,-2.93845 2.02652,-4.66099 2.63447,-2.02651 5.26894,-0.20265 2.63448,1.11458 2.33049,1.82386 -0.20265,4.35701 -3.85038,4.76232 -4.25569,0.8106 -3.74905,-0.20265 -7.80209,3.74906 -4.76231,3.03977 -2.53315,7.49811 c 0.33001,0.88111 0.66778,1.75932 1.01326,2.63448 0.52281,1.32436 1.06328,2.64175 1.62121,3.9517 l 3.1411,3.24243 1.62121,-1.62121 2.63448,-3.03978 1.51988,-3.24243 0.30398,-4.35701 0,0 2.53315,3.34376 4.15435,-2.63448 -2.43182,4.96497 1.31724,5.06629 4.45834,0.30398 2.53315,-1.41856"/>
    </g>
    <g>
      <title>l</title>
      <path d="m 482.91886,428.93663 5.37027,-3.1411 3.24242,-4.96497 1.21591,-4.86363 1.01326,-6.07955 -1.21591,-2.83713 -3.1411,1.62122 -2.12784,7.49811 0.10132,6.07955 1.92519,4.15436 2.93845,1.01325 4.86364,-1.51988"/>
    </g>
    <g>
      <title>l</title>
      <path d="m 501.46148,424.47829 1.72254,-3.85038 2.53315,-7.39678 0.30398,-5.8769 -1.62122,-4.66099 -1.51989,-1.41856 -3.03977,0.60796 -2.12784,5.57292 1.62121,9.01799 4.35701,7.59944 3.64773,1.82387 5.4716,-0.50663"/>
    </g>
    <g>
      <title>e</title>
      <path d="m 516.96433,422.24913 4.25569,0 0.8106,-3.03978 -0.30397,6.68751 0.20265,2.22916 0.30398,-4.96496 1.11458,-0.81061 4.35701,0 2.7358,0"/>
    </g>
    <g>
      <title>r</title>
      <path d="m 534.59503,420.62791 5.67424,-0.8106 -1.92519,1.72254 0.10133,2.53314 -0.20265,0.91193 2.12784,-1.82386 4.45833,0.30398 1.31724,1.72254 0.91193,2.02651 -0.8106,-3.24242 0.91193,-2.83713 1.92519,-0.4053 c 1.35046,0.078 2.70153,0.14554 4.05303,0.20265 0.91175,0.0385 1.8237,0.0723 2.7358,0.10133"/>
    </g>
    <g>
      <title>d</title>
      <g>
        <title>d</title>
        <path d="m 558.30527,407.25291 -6.07955,0.8106 -4.25569,-0.10132 -1.21591,-1.92519 -1.41856,-5.16762 0.10133,-2.63447 1.41856,-4.05304 2.93845,-1.11458 c 0.98338,0.60165 1.96289,1.20962 2.93845,1.82387 1.4271,0.89856 2.84574,1.81054 4.25568,2.73579 1.49638,1.61564 2.94941,3.27142 4.35701,4.96497 1.90906,2.29688 3.73454,4.66323 5.4716,7.0928 l 1.31723,3.24243 0.50663,2.83712 1.11459,3.34376 0,4.05303 -2.53315,2.63447 -4.66099,-0.30398 -1.01326,-2.12784 0.10133,-2.7358 2.22917,-2.63447 5.47159,-0.70928"/>
      </g>
    </g>
    <g>
      <title>t</title>
      <path d="m 586.16987,396.10706 -0.81061,4.55967 -0.20265,6.38352 -0.60795,3.24243 -1.31724,4.96496 -2.7358,5.97823 2.53315,-0.70928 4.86364,0.70928 8.20739,-0.10133"/>
      <path d="m 575.93596,412.7245 3.95171,-2.93845 5.97822,-0.50663 5.97822,-0.10132"/>
    </g>
    <g>
      <title>J</title>
      <path d="m 631.28504,407.62224 1.28426,-5.70783 1.56965,-3.28199 2.85391,-3.71009 2.85391,-1.99773 c 0.76596,0.94736 1.52702,1.89868 2.28313,2.85391 0.52561,0.66403 1.04883,1.32994 1.56965,1.99773 l -0.99887,11.55834 -1.42695,5.85052 -5.56513,14.98303 -5.56512,6.13591 -4.56626,2.56852 -2.85391,0.57078 -0.28539,-1.99774 -1.56965,-4.28086"/>
      <path d="m 628.14574,421.03562 c 1.94327,-0.45876 3.89376,-0.88692 5.85051,-1.28426 2.32242,-0.4716 4.65366,-0.89978 6.99209,-1.28426 l 3.56738,0"/>
    </g>
    <g>
      <title>a</title>
      <path d="m 660.82301,413.18736 -4.85164,3.282 -2.14044,2.56852 0.85618,0.99887 c 0.52205,0.14694 1.04528,0.28964 1.56965,0.42808 1.3721,0.36225 2.75191,0.6953 4.13817,0.99887 0.7755,-0.7464 1.53673,-1.50763 2.28313,-2.28313 1.02742,-1.06746 2.02675,-2.16197 2.9966,-3.28199 l 0.71348,1.56965 2.28313,2.71121 2.99661,-0.71347 2.56852,-1.56966"/>
    </g>
    <g>
      <title>n</title>
      <path d="m 678.08917,416.04127 4.56626,-2.42582 1.42696,1.14156 0,2.85391 -1.14157,2.99661 2.56852,-3.99548 2.71122,-1.42695 3.42469,-2.14043 2.28313,-0.28539 3.282,0 0.14269,2.71121 -0.71348,2.14043 3.71009,-1.28426 3.56739,0.1427"/>
    </g>
    <g>
      <title>s</title>
      <path d="m 709.1968,415.3278 2.56852,0.14269 3.85278,2.28313 0.85617,4.56626 -0.42808,1.56965 -0.71348,-5.42243 0.42809,-3.56739 1.42695,-3.71009 5.27974,-6.70669 1.99773,-4.42356 4.13817,-3.99547 -0.28539,4.42356 -0.85617,2.85391 -0.99887,1.99774 3.85278,-0.42809 2.42582,0.99887 1.71235,2.28313 0.42809,2.85391 -1.42696,1.42695 -3.56739,2.99661"/>
    </g>
    <g>
      <title></title>
      <path d="m 745.15608,409.61997 -3.99548,1.85505 -0.57078,2.71121 0.99887,1.99774 1.99773,0.57078 2.85391,-1.14156 1.99774,-1.85505 -0.57078,-1.99773 -1.56965,-0.57079 2.71121,0.42809 3.13931,-0.28539"/>
      <path d="m 750.29311,385.78982 -2.9966,4.13817 -0.99887,3.85278"/>
    </g>
    <g>
      <title>n</title>
      <path d="m 756.71441,410.04806 9.7033,0.57078 c 0.71496,-0.32977 1.42844,-0.66274 2.14043,-0.99887 1.38513,-0.65393 2.76459,-1.31987 4.13817,-1.99773 l 1.56965,2.71121 -1.42695,4.85165 1.71235,-4.56626 3.1393,-1.71234 4.56625,-0.85618 0.71348,2.42583 -0.28539,4.28086 1.56965,2.85391"/>
    </g>
    <g>
      <title>S</title>
      <path d="m 814.93419,386.3606 -0.71348,8.13365 2.28313,5.13704 6.99208,1.56965 3.56739,0 6.70669,3.56739 2.71122,2.85391 -0.57079,2.9966 -1.14156,3.99548 -5.99321,2.9966 -1.14157,-2.28312 c -0.37997,-1.4271 -0.76049,-2.85406 -1.14156,-4.28087 -0.71155,-2.66417 -1.42502,-5.32782 -2.14043,-7.99095 l -1.14157,-7.42017 0.42809,-4.85165 4.99434,-5.56512 5.27974,-0.85618 4.99434,0 7.56286,1.28426 2.85391,3.282 1.71235,6.84939"/>
    </g>
    <g>
      <title>c</title>
      <path d="m 849.8946,417.18284 -4.70896,-0.42809 -0.85617,-2.85391 -1.56965,-3.1393 1.71235,-2.71122 3.71008,-2.14043 1.28426,1.56965 4.56626,0.99887"/>
    </g>
    <g>
      <title>h</title>
      <path d="m 859.3125,409.04919 5.70782,-0.99887 5.85052,-1.85504 4.13817,-4.13817 0.1427,-5.42243 -1.42696,-5.27973 -3.1393,-1.56966 -4.13817,5.56513 0.14269,10.98756 c 0.86066,5.77824 1.85991,11.53583 2.99661,17.26616 0.45378,2.28761 0.92946,4.57088 1.42696,6.84938 l 0.14269,5.13704 -1.71235,4.56626 -3.85277,1.85504 -4.56626,-1.71235 -0.99887,-3.56738"/>
    </g>
    <g>
      <title>r</title>
      <path d="m 872.1551,414.61432 4.42356,-6.27861 3.71009,-1.42695 4.28086,1.14156 2.14043,2.56852 -1.56965,3.99548 3.56739,-0.57078 2.28313,0.14269 0.71348,3.1393 0.42808,-3.85278 2.71122,-5.42243 3.1393,-0.14269 2.42583,2.71121 4.56625,0.71348 2.42583,-0.99887"/>
    </g>
    <g>
      <title>e</title>
      <path d="m 912.53794,409.76267 3.71008,-0.57078 3.99547,-1.56965 -1.99773,3.56738 -0.28539,5.70783 1.56965,-4.70896 2.28313,-2.85391 1.56965,1.28426 5.85051,1.85504"/>
    </g>
    <g>
      <title>d</title>
      <path d="m 934.22766,411.76041 3.28199,-2.71122 2.85391,0.42809 2.71122,1.14156 1.85504,2.14044 2.56852,0.71347 2.99661,0 c 1.10221,-1.27724 2.19623,-2.56153 3.28199,-3.85278 1.58742,-1.88786 3.15717,-3.79057 4.70896,-5.70782 l -1.14157,-5.99321 -2.9966,-4.13817 -3.56739,0.71348 -0.1427,4.70895 1.71235,3.71008 3.71008,1.71235 6.84939,1.71235 3.71008,0.14269"/>
    </g>
    <g>
      <title>e</title>
      <path d="m 970.90041,406.19528 3.56739,1.85504 1.99773,3.71009 0,1.56965 0.2854,-6.13591 0.99886,-4.42356 0.99887,1.71234 4.42356,0.1427 2.71122,0.71348"/>
    </g>
    <g>
      <title>r</title>
      <path d="m 989.02274,405.4818 4.56626,0.28539 2.56852,-2.9966 3.42469,0 1.56969,2.14043 -0.5708,2.71122 -1.99776,3.85278 1.99776,-1.99774 1.855,-0.99887 3.4247,0.71348 -1.2842,1.85504 c 0.902,-1.49568 1.7587,-3.0187 2.5685,-4.56626 0.4931,-0.94242 0.9689,-1.89394 1.4269,-2.85391 1.3762,0.17149 2.756,0.31422 4.1382,0.42809 1.662,0.13692 3.3275,0.23209 4.9943,0.28539"/>
    </g>
    <g>
      <title>1</title>
      <path d="m 1043.6835,420.80696 5.2038,-20.60724 3.1223,-1.66523 2.9142,-4.37123 -3.5386,22.48062 -0.4163,6.03646 3.5386,-1.04077"/>
      <path d="m 1053.883,385.00449 2.4979,0"/>
    </g>
    <g>
      <title>d</title>
      <path d="m 1078.6533,412.27265 2.9142,0.4163 3.1223,2.08154 5.8283,2.49785 3.5386,-1.45708 3.9549,-3.12231 2.2897,-6.24461 0.8326,-7.70169 -1.457,-9.78324 -1.6653,-2.08153 -3.3304,-1.24893 -2.4979,3.74677 -0.2081,6.86908 2.0815,8.118 1.8734,2.49785 3.7468,1.66523 3.5386,-0.20816"/>
    </g>
    <g>
      <title>a</title>
      <path d="m 1115.0802,414.14603 -4.163,-0.41631 -0.6245,-2.706 1.0408,-5.412 2.9141,-2.49784 2.2897,-1.04077 1.8734,0.20815 1.0408,-1.87338 1.0407,-2.706 0,2.08154 1.0408,2.08153 3.9549,2.49785 -1.2489,3.12231 0.2082,3.74677 1.6652,1.04077 4.3712,0.20815 2.0816,-1.24892"/>
    </g>
    <g>
      <title>t</title>
      <path d="m 1135.063,416.01942 9.3669,-1.04077 c 1.2649,-6.31082 2.5139,-12.62485 3.7468,-18.942 1.1235,-5.75635 2.2336,-11.51529 3.3305,-17.27677 l -6.8691,31.22307 2.706,5.41201 4.5794,-2.91416"/>
      <path d="m 1124.8635,383.33926 11.2403,2.91415 c 3.7473,0.034 7.4943,0.10334 11.2403,0.20816 6.3179,0.17679 12.633,0.45437 18.942,0.83261"/>
    </g>
    <g>
      <title>r</title>
      <path d="m 1156.2947,410.81557 2.0816,-2.28969 -0.4164,-7.28539 0.6245,4.37123 1.4571,2.08154 3.7468,1.45708 2.9141,-0.20815 -2.706,3.53861 -2.9141,4.57939 -0.2082,6.86907 3.5386,4.37123 6.0365,1.24893 5.2038,-1.87339 3.9549,-3.1223"/>
    </g>
    <g>
      <title>k</title>
      <path d="m 160.60496,486.59644 0.53357,-5.4691 -1.46732,-2.93464 -4.00179,-2.40107 -5.4691,1.7341 -3.735,4.66875 -0.53357,8.00357 c -0.63436,2.21987 -1.25687,4.44313 -1.8675,6.66964 -0.68179,2.486 -1.34878,4.97606 -2.0009,7.47 l -3.6016,2.53446 -2.26768,1.33393 -2.80125,-2.93464 -0.26679,-6.66964 6.66965,-4.66875 4.00178,-2.00089 6.00268,-0.53357 0.80035,3.73499 -1.20053,5.7359 -2.40107,4.00178 1.33393,4.66875 2.13428,1.06714"/>
    </g>
    <g>
      <title>a</title>
      <path d="m 154.60228,510.07358 4.40196,-1.20053 2.40107,-5.33572 -0.53357,4.40197 4.93554,-0.53358 1.33392,-0.80035 2.66786,-2.93464 -0.66696,-5.46911 1.60071,2.40107 3.20143,-0.53357 0.26678,3.86839 2.80125,2.26768 3.86839,0"/>
    </g>
    <g>
      <title>l</title>
      <path d="m 186.08298,503.53733 5.06893,-2.93464 2.93464,-3.735 1.8675,-3.6016 1.20054,-5.20232 -0.53357,-3.33483 -0.53357,-2.00089 -2.80125,-0.13339 -2.53447,3.06803 -1.06714,6.26947 1.73411,6.40285 5.6025,5.20232 4.53535,0"/>
    </g>
    <g>
      <title>d</title>
      <path d="m 206.49209,502.3368 4.13517,-2.93464 2.40107,-3.06804 -0.93375,-2.13428 -1.60071,2.26767 -0.13339,4.53536 3.735,2.40107 3.06803,-1.06714 1.46732,-1.8675 c -0.4011,-1.4226 -0.80128,-2.84545 -1.20053,-4.26857 -0.31181,-1.11145 -0.62306,-2.22306 -0.93375,-3.33482 l -3.86839,-7.20322 -4.13518,-5.06892 -7.20321,-6.40286 -15.60696,-2.00089 -7.06982,2.00089 -1.73411,5.73589 1.06714,3.33482 2.26768,3.06804"/>
    </g>
    <g>
      <title>e</title>
      <path d="m 223.83315,499.66894 5.6025,-0.80036 c 1.10667,-0.41371 2.21839,-0.81393 3.33482,-1.20053 1.06297,-0.36809 2.1302,-0.72383 3.20143,-1.06714 -0.1485,0.88693 -0.28192,1.77638 -0.40018,2.66785 -0.24093,1.81615 -0.41893,3.64064 -0.53357,5.46911 l 0.93375,-3.06804 1.06714,-2.53446 3.46822,0 3.20142,0 2.93464,-0.80036 3.60161,-0.40018"/>
    </g>
    <g>
      <title>t</title>
      <path d="m 266.65225,468.32163 0.80035,8.53714 0.1334,4.53535 -0.80036,6.93643 -1.8675,5.33571 -3.86839,5.46911 4.13518,-1.06714 c 1.46795,0.0781 2.93532,0.16707 4.40196,0.26678 1.73525,0.11797 3.46947,0.25104 5.20232,0.40018 1.42385,0.12255 2.84676,0.25594 4.26857,0.40018 l 3.46821,-0.40018"/>
      <path d="m 256.78118,489.93126 8.27035,-1.46732 5.7359,1.33393 5.60249,-1.06714 4.80215,0.93375"/>
    </g>
    <g>
      <title>S</title>
      <path d="m 735.95016,444.22294 1.93067,6.71135 3.12583,3.76939 3.67745,1.65485 6.89523,0.73549 3.76939,1.56292 3.76938,2.48228 1.74679,3.95326 -0.55161,4.59681 -1.74679,1.83873 -4.50488,0.64355 -3.0339,-1.01129 -1.47098,-3.67746 -0.18387,-5.05649 1.2871,-4.59682 c 1.17209,-1.884 2.36738,-3.75356 3.58552,-5.60811 1.22727,-1.86845 2.47781,-3.7218 3.67745,-5.60812 1.15084,-1.8096 2.25458,-3.64915 3.30971,-5.51618 l 2.20647,3.21777 2.29841,1.10324 3.95326,3.40164"/>
    </g>
    <g>
      <title>t</title>
      <path d="m 776.76989,450.47461 -1.47099,4.13713 0,3.67745 0.36775,2.11454 -0.0919,3.49358 -1.37904,2.57421 0,2.66616 -1.65485,3.21777 1.74679,-1.28711 3.76938,-0.27581 2.75809,0.55162"/>
      <path d="m 768.77143,463.43763 c 1.44322,-0.12426 2.88394,-0.27753 4.321,-0.45969 0.67505,-0.0856 1.34929,-0.1775 2.0226,-0.2758 l 3.95326,-0.91937 1.93067,0"/>
    </g>
    <g>
      <title>i</title>
      <path d="m 789.64097,469.13768 c 1.39615,-0.4403 2.7764,-0.93105 4.13713,-1.47098 0.80424,-0.31911 1.60169,-0.65541 2.39035,-1.0113 0.58729,-0.26502 1.16969,-0.54089 1.74679,-0.82743 l 1.65485,-0.64355 0.91936,0.45968 0.73549,0.82742 -0.0919,2.20648 -1.47098,2.11453 3.49358,-3.67745 0.91936,-0.55162"/>
      <path d="m 796.99587,444.68262 2.85003,1.37904"/>
    </g>
    <g>
      <title>n</title>
      <path d="m 808.12017,464.44892 2.85002,-0.2758 1.47098,0.73549 0.18388,2.0226 -0.64356,2.11453 -1.65485,1.56292 3.21777,-3.95326 2.85003,-1.65486 2.94196,-0.36774 1.74679,0.18387 0.27581,1.93066 -0.55162,1.56292 0.27581,1.0113 2.20647,-1.0113 2.57422,-0.82743"/>
    </g>
    <g>
      <title>e</title>
      <path d="m 830.55263,465.82797 3.86132,-0.91936 0.73549,1.19517 -0.18387,7.17103 0.64355,-6.89522 2.11454,-3.67745 2.57422,0.82742 0.45968,-0.0919"/>
    </g>
    <g>
      <title>C</title>
      <path d="m 866.15428,455.35757 3.52513,1.61568 6.0221,1.76257 4.5533,0 3.67201,-2.64385 2.35009,-3.67201 1.02816,-2.64385 3.52514,-3.08449 4.25953,-2.79073 c -0.1232,-0.98256 -0.27014,-1.96214 -0.44064,-2.93761 -0.17195,-0.98378 -0.36787,-1.96337 -0.58752,-2.93761"/>
      <path d="m 887.59884,448.89483 -1.46881,-6.31587 -3.08449,-0.14688 -4.84706,1.90945 c -0.70051,0.96854 -1.38606,1.9479 -2.05632,2.93761 -0.75389,1.11321 -1.48845,2.23952 -2.20321,3.37825 l -0.58752,5.87522 -1.90945,6.0221 1.76257,2.64385 2.49696,5.14082 5.72834,2.49697 3.67202,-2.49697"/>
    </g>
    <g>
      <title>a</title>
      <path d="m 892.29901,466.3736 5.2877,-5.43457 -3.08449,4.25953 1.32192,2.93761 4.25954,-1.02816 4.55329,-2.79073 2.20321,-5.58146 -0.88128,6.16898 0.88128,3.37825 7.4909,-1.32193"/>
    </g>
    <g>
      <title>s</title>
      <path d="m 918.0031,465.19856 4.84705,-1.02816 4.84706,0.44064 3.52513,4.25953 0,5.2877 -0.7344,2.93761 -2.20321,1.90945 1.61569,-16.74438 4.40641,-15.71621 6.16898,-8.81283 4.84706,-2.49697 2.05633,2.49697 0,5.2877 -5.87522,9.40035 3.81889,2.05632 1.61569,1.32193 0.58752,4.84706 -2.79073,5.87522 5.2877,-6.90339"/>
    </g>
    <g>
      <title>p</title>
      <path d="m 952.81378,458.44206 6.0221,-0.7344 -0.29377,3.67201 1.61569,4.40641 2.79073,2.05633 4.55329,-1.46881 0.58753,-2.64384 -1.02817,-6.16898 -1.4688,-0.58753 -6.16898,4.99394 -5.14082,6.7565 -3.23137,11.3098 -1.46881,15.56933 0,9.25347 -2.49696,8.51907"/>
    </g>
    <g>
      <title>e</title>
      <path d="m 973.23016,462.26095 4.5533,-1.4688 2.20321,-3.23137 0.44064,3.52513 -1.90945,5.58146 2.79073,-3.37826 4.70018,0.73441 4.84705,-1.17505"/>
    </g>
    <g>
      <title>r</title>
      <path d="m 992.76527,462.40783 3.52513,0 1.17505,-1.61568 -0.14688,2.49696 3.23133,0.14688 2.497,0.73441 0.7344,3.67201 2.7907,-4.84706 1.6157,-4.25953 3.0845,1.02816"/>
    </g>
    <g>
      <title>s</title>
      <path d="m 1014.7973,459.91086 3.0845,-0.44064 2.3501,-1.61568 2.2032,-2.20321 1.9095,-3.37825 -3.2314,1.32192 -1.7626,2.49697 -0.1468,3.08449 1.4688,2.35009 7.0502,-1.61569 2.6439,0.14688 8.9597,1.46881 -0.5875,2.05633 -2.6439,2.2032 -6.0221,0.44064 -0.7344,-5.14081 0.7344,-4.5533 1.7626,-3.52513 0.1469,-3.52513 -4.1127,-3.37825 -4.9939,-7.05027 0.7344,-4.55329 1.7625,-3.37825 1.4688,-6.16898 c 0.5939,-1.00599 0.8069,-2.23082 0.5876,-3.37826 -0.2719,-1.42243 -1.2169,-2.70098 -2.497,-3.37825"/>
    </g>
    <g>
      <title>d</title>
      <path d="m 1067.2337,460.93903 5.7283,4.11265 7.1972,2.05633 6.9033,-3.23137 2.7908,-4.40642 3.5251,-7.05026 -0.1469,-7.49091 -1.6157,-5.58146 -3.9657,0 -2.7908,4.99394 -1.9094,8.51907 1.3219,3.08449 4.994,1.4688 5.5814,0.73441"/>
    </g>
    <g>
      <title>a</title>
      <path d="m 1106.7445,463.14223 -2.9376,2.49697 -3.672,-0.88128 -0.8813,-3.96577 2.0564,-4.40642 3.5251,-2.35009 3.8189,1.61569 3.3782,-2.79073 -1.6157,2.93761 1.6157,2.79073 2.6439,0.29376 -0.4407,5.2877 0.5876,2.93761 3.2313,0.88128 5.2877,-2.93761 3.0845,-2.64385 5.5815,-10.57539"/>
    </g>
    <g>
      <title>t</title>
      <path d="m 1149.9274,427.89092 -8.5191,11.01603 c -1.6326,4.64687 -3.1026,9.35089 -4.4064,14.10053 -0.9745,3.55023 -1.8562,7.12596 -2.6438,10.72228 l 0.5875,3.67201 8.0784,-2.35009"/>
      <path d="m 1115.1167,439.64135 c 2.8386,0.39929 5.6784,0.79098 8.5191,1.17505 3.4725,0.46948 6.9467,0.92762 10.4285,1.32192 6.0046,0.67999 12.0307,1.16992 18.0663,1.46881 l 3.9658,0"/>
    </g>
    <path d="m 1145.8147,463.14223 4.994,-2.2032 3.672,-6.90339 -2.9376,7.05027 0.4406,1.32192 1.9095,1.61569 7.344,0 3.2314,1.90944 c -0.7529,1.82449 -1.5364,3.63635 -2.3501,5.43458 -1.0292,2.27466 -2.1067,4.52751 -3.2314,6.7565 l 1.6157,2.35009 6.9034,2.64385 2.9376,-2.05633"/>
    <g>
      <title>S</title>
      <path d="m 137.09116,536.75897 1.55564,6.02813 3.69465,4.66693 c 2.46305,-0.0206 4.92627,-0.0206 7.38932,0 3.30633,0.0277 6.61235,0.0925 9.91723,0.19445 l 5.44475,3.11129 0.38891,3.11129 -1.36118,3.11129 -5.44476,-0.58337 -2.72238,-3.30574 0.19446,-5.2503 -3.69466,-4.47248 -1.36119,-4.86139 c 0.92554,-1.545 1.83308,-3.10079 2.72238,-4.66693 1.13162,-1.99289 2.2337,-4.00256 3.30575,-6.02812 l 2.91683,-1.7501 4.86139,0.38891 2.91683,3.88911 3.30574,3.11129 c -0.11411,1.03323 -0.17903,2.07189 -0.19445,3.11129 -0.005,0.32407 -0.005,0.64821 0,0.97228"/>
    </g>
    <g>
      <title>e</title>
      <path d="m 173.84325,551.5376 c 1.81561,-0.043 3.63071,-0.10778 5.44476,-0.19446 1.16721,-0.0558 2.33399,-0.1206 3.5002,-0.19446 l 2.13901,-5.44475 -1.94456,7.38931 2.52792,5.63921 -1.55564,-6.61149 1.7501,-5.44475 2.13901,3.30574 6.02812,0"/>
    </g>
    <g>
      <title>r</title>
      <path d="m 197.37237,548.81522 6.02812,0 1.94456,-1.55565 1.55564,3.30575 0.58337,3.69465 2.52792,-2.91683 4.47248,-0.19446 0.38891,2.72238 -0.19445,-4.08356 0.97227,-4.27803 c 1.74947,0.13793 3.4996,0.26757 5.2503,0.38891 0.97211,0.0674 1.94439,0.1322 2.91684,0.19446"/>
    </g>
    <g>
      <title>c</title>
      <path d="m 234.51338,551.14868 -1.7501,0.77783 -2.52792,-2.91684 -1.36119,-3.88911 6.80594,-5.05584 4.27803,2.33346 4.86138,0.58337"/>
    </g>
    <g>
      <title>k</title>
      <path d="m 249.68091,542.7871 14.38971,-2.72238 8.36159,-3.11129 2.13901,-6.41703 0.19446,-7.58377 -4.08357,-6.02812 -6.22258,1.7501 -8.55604,14.19525 c 0.10716,3.17505 0.17199,6.35154 0.19446,9.52832 0.0119,1.68526 0.0119,3.37059 0,5.05585 l 3.30574,0.38891 6.22258,-4.08357 -1.55565,-7.97267 -1.7501,3.30574 1.36119,6.02812 2.72238,3.5002 6.61149,-1.36119 5.63921,-1.94455"/>
    </g>
    <g>
      <title>s</title>
      <path d="m 284.68291,538.50907 -0.77782,2.91684 1.16673,1.94455 2.72238,1.94456 5.44475,-1.36119 6.41704,-0.77782 1.7501,1.7501 0,2.72237 -1.7501,1.55565 -6.02813,0.97228 -0.97227,-3.5002 c 0.0716,-1.81845 0.20129,-3.6346 0.38891,-5.44476 0.15502,-1.49562 0.34957,-2.98714 0.58336,-4.47248 l 2.33347,-5.63921 -0.97228,-2.13901 -3.69465,-0.38891 -2.33347,-2.52792 c 0.43706,-1.6084 0.8262,-3.22982 1.16673,-4.86139 0.29616,-1.41897 0.55555,-2.84562 0.77783,-4.27802 l 0.58336,-5.83367"/>
    </g>
    <g>
      <title>J</title>
      <path d="m 333.29679,537.73125 -1.94455,-8.16713 3.11129,-7.19486 2.52792,-3.5002 2.52792,0.58337 1.94456,1.94456 0.58336,2.33346 2.91684,0.19446 2.33346,-2.13901 -1.55564,5.2503 -0.77782,4.27802 -1.94456,0.58337 0,4.86138 0,5.2503 -0.97228,10.30615 -7.0004,10.69505 -2.91683,3.30575 -5.44475,-2.52793"/>
      <path d="m 330.76887,543.17601 9.33387,-2.52793 11.47288,0.19446"/>
    </g>
    <g>
      <title></title>
      <path d="m 358.77047,538.12016 -1.55564,0.77783 -1.16674,4.27802 2.33347,3.5002 4.86139,-0.19446 1.94455,-2.72238 0,-3.11129 -5.63921,-3.69465 3.30575,1.55564 4.66693,1.55565 7.77822,-0.77782"/>
      <path d="m 380.16058,517.31342 -2.52792,8.7505 -3.5002,5.63921"/>
    </g>
    <g>
      <title>r</title>
      <path d="m 381.52177,539.87026 1.16673,2.52792 5.2503,-0.38891 4.27802,0.97228 0.19446,6.02812 0,-6.80594 3.11129,-3.88911 5.05584,2.52792 1.55565,0 4.08356,-0.97228 3.5002,-0.38891"/>
    </g>
    <g>
      <title>g</title>
      <path d="m 419.63505,533.25877 -3.88911,5.05585 0.97228,2.72238 3.5002,1.7501 2.52792,-1.16674 3.5002,-0.97228 -0.19445,-5.63921 0.97227,-3.88911 c -1.00376,4.83162 -1.84702,9.69659 -2.52792,14.58417 -0.28843,2.07041 -0.54774,4.14488 -0.77782,6.22258 l -8.36159,13.02852 -12.2507,8.94495 -15.16753,4.86139 -11.27842,0.58337 -6.02812,-1.36119"/>
    </g>
    <g>
      <title>r</title>
      <path d="m 434.41368,537.73125 7.97267,-0.19445 6.22258,-0.97228 -0.19446,-4.47248 -1.55564,14.38971 3.11129,-10.30614 4.47248,-0.97228 5.83366,-1.94456"/>
    </g>
    <g>
      <title>n</title>
      <path d="m 463.77646,533.64769 2.33347,-1.16674 1.16673,6.22258 0,2.13901 c 0.58792,-1.35923 1.17129,-2.72043 1.7501,-4.08357 0.52227,-1.22998 1.04082,-2.46154 1.55565,-3.69465 l 5.83366,-0.19446 0,2.91684 c -0.70455,1.46033 -0.62914,3.27028 0.19446,4.66693 0.42355,0.71826 1.03184,1.32655 1.7501,1.7501 l 7.0004,-1.55565"/>
    </g>
    <g>
      <title>T</title>
      <path d="m 539.22521,515.95223 -7.38931,-3.30574 c -4.19459,-1.35587 -8.40835,-2.65241 -12.63961,-3.88911 -1.81175,-0.52953 -3.62672,-1.0481 -5.44475,-1.55565 l -11.47288,4.66694 -0.19446,5.83366 1.16674,1.94456 6.61148,0.58336 2.72238,-1.7501"/>
      <path d="m 512.5848,533.06432 3.30575,-1.55565 3.11129,-2.13901 0.19445,-4.08356 -4.47248,-2.33347 -4.47247,1.55565 -2.52793,4.86138 1.55565,8.16714 4.08356,3.69465 5.44476,-0.77782 13.02852,-3.5002"/>
      <path d="m 533.78046,495.5344 -3.69466,11.47288 -1.36119,11.27842"/>
    </g>
    <g>
      <title>h</title>
      <path d="m 543.89214,528.98075 4.66694,-1.55564 3.11129,-3.69466 1.55564,-4.86139 0.58337,-4.47247 -2.52793,-2.33347 -5.05584,-0.19445 -1.55564,6.61148 -1.16674,15.16754 0.97228,5.83366 c -0.18663,2.72864 -0.44603,5.45231 -0.77782,8.16713 -0.36593,2.99414 -0.81992,5.97751 -1.36119,8.94496 -1.21869,2.0581 -2.51633,4.06944 -3.88911,6.02812 -0.32003,0.45662 -0.64414,0.91037 -0.97228,1.36119 l -2.91683,-5.44476 0.19445,-7.58376 1.55565,-7.0004 3.88911,-4.27802 6.61149,-5.05585"/>
    </g>
    <g>
      <title>o</title>
      <path d="m 551.087,533.25877 8.16713,-2.72237 -4.47248,2.52792 0.97228,4.66693 3.69466,0.58337 4.27802,-3.69466 0.19445,-3.88911 -3.88911,0 5.83367,-0.77782 2.52792,0.58337"/>
    </g>
    <g>
      <title>r</title>
      <path d="m 572.67156,529.75857 7.38931,-0.58336 0,1.16673 0.77783,3.30575 -1.55565,2.13901 2.72238,-0.77783 2.52792,0.77783 -1.16673,3.88911 2.33347,-7.77822 6.80594,-4.08357 6.22258,-0.19446 1.55564,1.7501"/>
    </g>
    <g>
      <title>m</title>
      <path d="m 607.86802,530.34194 8.7505,-3.5002 2.33346,3.11129 -2.13901,5.44476 2.13901,-4.66694 3.30575,-4.08356 4.27802,0 3.30574,2.72237 -0.38891,2.72238 -2.13901,3.5002 3.11129,-6.80594 4.47248,-1.94456 4.66693,-0.77782 0.19446,3.30574 -0.58337,4.47248 0.77782,1.55565 4.66693,-0.58337"/>
    </g>
    <g>
      <title></title>
      <path d="m 656.87081,526.25837 -2.72238,2.33347 -1.16673,3.88911 0.97228,1.7501 3.30574,0.77782 2.52793,-1.16673 2.72237,-4.86139 -0.19445,-3.30574 -4.66694,-0.58337 5.63922,1.16673 1.94455,1.36119 3.5002,-0.77782"/>
      <path d="m 671.26052,499.0346 -6.61149,16.91763"/>
      <path d="m 664.64903,498.84014 -7.97267,18.66774"/>
    </g>
    <g>
      <title>l</title>
      <path d="m 673.9829,525.67501 c 3.04916,-2.04275 6.03285,-4.18322 8.94495,-6.41703 2.45012,-1.87944 4.84957,-3.82494 7.19486,-5.83367 l 1.94456,-4.08357 -0.38892,-6.02812 -2.33346,-6.61149 -5.63921,1.16674 -3.88911,6.41703 -1.7501,9.91723 0.19445,11.47288 1.16674,5.83366 5.25029,-0.38891 5.63922,-2.91683"/>
    </g>
    <g>
      <title>e</title>
      <path d="m 691.4839,527.42511 6.02812,-3.5002 -1.55564,11.66733 3.11128,-11.08396 2.91684,0 3.88911,2.52792 7.58376,-0.19446"/>
    </g>
    <g>
      <title>n</title>
      <path d="m 718.70767,525.86946 4.27803,-2.52792 3.88911,-1.36119 2.33346,1.55565 1.16674,1.55564 -0.77783,4.47248 3.5002,-4.47248 c 1.09448,-0.40957 2.19666,-0.79857 3.30575,-1.16673 1.47914,-0.49099 2.9706,-0.94491 4.47248,-1.36119 l 4.08356,1.16673 -0.58336,3.5002 0.58336,3.30575 1.36119,0.58336 3.5002,-0.77782"/>
    </g>
  </g>
</svg>
